avara-black.ufo
<glyph name="exclam" format="1">
  <advance width="320"/>
  <unicode hex="0021"/>
  <outline>
    <contour>
      <point x="40" y="760" type="line"/>
      <point x="40" y="560" type="line"/>
      <point x="120" y="280" type="line"/>
      <point x="160" y="280" type="line"/>
      <point x="280" y="560" type="line"/>
      <point x="280" y="760" type="line"/>
      <point x="240" y="800" type="line"/>
      <point x="80" y="800" type="line"/>
    </contour>
    <component base="period"/>
  </outline>
</glyph>
<glyph name="percent" format="1">
  <advance width="960"/>
  <unicode hex="0025"/>
  <outline>
    <contour>
      <point x="240" y="800" type="line"/>
      <point x="320" y="800" type="line"/>
      <point x="400" y="720" type="line"/>
      <point x="440" y="600" type="line"/>
      <point x="360" y="400" type="line"/>
      <point x="240" y="360" type="line"/>
      <point x="160" y="360" type="line"/>
      <point x="80" y="440" type="line"/>
      <point x="40" y="600" type="line"/>
      <point x="120" y="760" type="line"/>
    </contour>
    <contour>
      <point x="240" y="760" type="line"/>
      <point x="200" y="720" type="line"/>
      <point x="200" y="440" type="line"/>
      <point x="240" y="400" type="line"/>
      <point x="280" y="440" type="line"/>
      <point x="280" y="720" type="line"/>
    </contour>
    <contour>
      <point x="520" y="840" type="line"/>
      <point x="560" y="840" type="line"/>
      <point x="400" y="-40" type="line"/>
      <point x="360" y="-40" type="line"/>
    </contour>
    <contour>
      <point x="680" y="0" type="line"/>
      <point x="600" y="0" type="line"/>
      <point x="520" y="80" type="line"/>
      <point x="480" y="200" type="line"/>
      <point x="560" y="400" type="line"/>
      <point x="680" y="440" type="line"/>
      <point x="760" y="440" type="line"/>
      <point x="840" y="360" type="line"/>
      <point x="880" y="200" type="line"/>
      <point x="800" y="40" type="line"/>
    </contour>
    <contour>
      <point x="680" y="40" type="line"/>
      <point x="720" y="80" type="line"/>
      <point x="720" y="360" type="line"/>
      <point x="680" y="400" type="line"/>
      <point x="640" y="360" type="line"/>
      <point x="640" y="80" type="line"/>
    </contour>
  </outline>
</glyph>
<glyph name="ampersand" format="1">
  <advance width="880"/>
  <unicode hex="0026"/>
  <outline>
    <contour>
      <point x="400" y="720" type="line"/>
      <point x="360" y="680" type="line"/>
      <point x="360" y="520" type="line"/>
      <point x="400" y="480" type="line"/>
      <point x="440" y="480" type="line"/>
      <point x="440" y="680" type="line"/>
    </contour>
    <contour>
      <point x="440" y="120" type="line"/>
      <point x="480" y="80" type="line"/>
      <point x="400" y="0" type="line"/>
      <point x="200" y="0" type="line"/>
      <point x="80" y="80" type="line"/>
      <point x="40" y="160" type="line"/>
      <point x="40" y="280" type="line"/>
      <point x="80" y="360" type="line"/>
      <point x="200" y="440" type="line"/>
      <point x="160" y="520" type="line"/>
      <point x="160" y="640" type="line"/>
      <point x="200" y="720" type="line"/>
      <point x="320" y="800" type="line"/>
      <point x="480" y="800" type="line"/>
      <point x="600" y="720" type="line"/>
      <point x="640" y="640" type="line"/>
      <point x="640" y="560" type="line"/>
      <point x="600" y="480" type="line"/>
      <point x="520" y="440" type="line"/>
      <point x="440" y="440" type="line"/>
      <point x="600" y="240" type="line"/>
      <point x="600" y="360" type="line"/>
      <point x="520" y="440" type="line"/>
      <point x="880" y="440" type="line"/>
      <point x="640" y="200" type="line"/>
      <point x="800" y="0" type="line"/>
      <point x="760" y="-40" type="line"/>
      <point x="560" y="40" type="line"/>
      <point x="280" y="360" type="line"/>
      <point x="240" y="360" type="line"/>
      <point x="240" y="240" type="line"/>
      <point x="280" y="120" type="line"/>
      <point x="320" y="80" type="line"/>
      <point x="360" y="80" type="line"/>
    </contour>
  </outline>
</glyph>
<glyph name="quotesingle" format="1">
  <advance width="200"/>
  <unicode hex="0027"/>
  <outline>
    <contour>
      <point x="80" y="560" type="line"/>
      <point x="0" y="720" type="line"/>
      <point x="0" y="760" type="line"/>
      <point x="80" y="840" type="line"/>
      <point x="120" y="840" type="line"/>
      <point x="200" y="760" type="line"/>
      <point x="200" y="720" type="line"/>
      <point x="120" y="560" type="line"/>
    </contour>
  </outline>
</glyph>
<glyph name="plus" format="1">
  <advance width="600"/>
  <unicode hex="002B"/>
  <outline>
    <contour>
      <point x="0" y="360" type="line"/>
      <point x="240" y="360" type="line"/>
      <point x="240" y="600" type="line"/>
      <point x="320" y="600" type="line"/>
      <point x="320" y="360" type="line"/>
      <point x="560" y="360" type="line"/>
      <point x="560" y="280" type="line"/>
      <point x="320" y="280" type="line"/>
      <point x="320" y="40" type="line"/>
      <point x="240" y="40" type="line"/>
      <point x="240" y="280" type="line"/>
      <point x="0" y="280" type="line"/>
    </contour>
  </outline>
</glyph>
<glyph name="hyphen" format="1">
  <advance width="320"/>
  <unicode hex="002D"/>
  <outline>
    <contour>
      <point x="40" y="320" type="line"/>
      <point x="280" y="320" type="line"/>
      <point x="280" y="240" type="line"/>
      <point x="40" y="240" type="line"/>
    </contour>
  </outline>
</glyph>
<glyph name="four" format="1">
  <advance width="760"/>
  <unicode hex="0034"/>
  <outline>
    <contour>
      <point x="440" y="280" type="line"/>
      <point x="440" y="680" type="line"/>
      <point x="240" y="280" type="line"/>
    </contour>
    <contour>
      <point x="400" y="760" type="line"/>
      <point x="640" y="800" type="line"/>
      <point x="640" y="280" type="line"/>
      <point x="720" y="280" type="line"/>
      <point x="720" y="200" type="line"/>
      <point x="640" y="200" type="line"/>
      <point x="640" y="80" type="line"/>
      <point x="720" y="0" type="line"/>
      <point x="360" y="0" type="line"/>
      <point x="440" y="80" type="line"/>
      <point x="440" y="200" type="line"/>
      <point x="80" y="200" type="line"/>
      <point x="0" y="280" type="line"/>
    </contour>
  </outline>
</glyph>
<glyph name="eight" format="1">
  <advance width="720"/>
  <unicode hex="0038"/>
  <outline>
    <contour>
      <point x="240" y="440" type="line"/>
      <point x="160" y="480" type="line"/>
      <point x="80" y="560" type="line"/>
      <point x="80" y="680" type="line"/>
      <point x="160" y="760" type="line"/>
      <point x="280" y="800" type="line"/>
      <point x="440" y="800" type="line"/>
      <point x="560" y="760" type="line"/>
      <point x="640" y="680" type="line"/>
      <point x="640" y="560" type="line"/>
      <point x="600" y="480" type="line"/>
      <point x="520" y="440" type="line"/>
      <point x="600" y="400" type="line"/>
      <point x="680" y="280" type="line"/>
      <point x="680" y="200" type="line"/>
      <point x="600" y="80" type="line"/>
      <point x="440" y="0" type="line"/>
      <point x="280" y="0" type="line"/>
      <point x="120" y="80" type="line"/>
      <point x="40" y="200" type="line"/>
      <point x="40" y="280" type="line"/>
      <point x="120" y="400" type="line"/>
    </contour>
    <contour>
      <point x="280" y="320" type="line"/>
      <point x="240" y="280" type="line"/>
      <point x="240" y="200" type="line"/>
      <point x="280" y="120" type="line"/>
      <point x="360" y="80" type="line"/>
      <point x="440" y="120" type="line"/>
      <point x="480" y="200" type="line"/>
      <point x="480" y="320" type="line"/>
      <point x="440" y="400" type="line"/>
    </contour>
    <contour>
      <point x="360" y="720" type="line"/>
      <point x="280" y="680" type="line"/>
      <point x="280" y="560" type="line"/>
      <point x="320" y="480" type="line"/>
      <point x="400" y="520" type="line"/>
      <point x="440" y="600" type="line"/>
      <point x="440" y="680" type="line"/>
    </contour>
  </outline>
</glyph>
<glyph name="nine" format="1">
  <advance width="720"/>
  <unicode hex="0039"/>
  <outline>
    <contour>
      <point x="480" y="400" type="line"/>
      <point x="440" y="320" type="line"/>
      <point x="360" y="280" type="line"/>
      <point x="280" y="280" type="line"/>
      <point x="120" y="360" type="line"/>
      <point x="40" y="480" type="line"/>
      <point x="40" y="600" type="line"/>
      <point x="120" y="720" type="line"/>
      <point x="280" y="800" type="line"/>
      <point x="440" y="800" type="line"/>
      <point x="600" y="720" type="line"/>
      <point x="680" y="560" type="line"/>
      <point x="680" y="320" type="line"/>
      <point x="600" y="160" type="line"/>
      <point x="440" y="40" type="line"/>
      <point x="200" y="0" type="line"/>
      <point x="120" y="0" type="line"/>
      <point x="40" y="120" type="line"/>
      <point x="120" y="240" type="line"/>
      <point x="240" y="240" type="line"/>
      <point x="240" y="80" type="line"/>
      <point x="360" y="120" type="line"/>
      <point x="440" y="240" type="line"/>
      <point x="480" y="360" type="line"/>
    </contour>
    <contour>
      <point x="440" y="440" type="line"/>
      <point x="480" y="520" type="line"/>
      <point x="480" y="600" type="line"/>
      <point x="440" y="680" type="line"/>
      <point x="360" y="720" type="line"/>
      <point x="360" y="720" type="line"/>
      <point x="280" y="680" type="line"/>
      <point x="240" y="600" type="line"/>
      <point x="240" y="520" type="line"/>
      <point x="280" y="440" type="line"/>
      <point x="360" y="400" type="line"/>
      <point x="360" y="400" type="line"/>
    </contour>
  </outline>
</glyph>
<glyph name="less" format="1">
  <advance width="480"/>
  <unicode hex="003C"/>
  <outline>
    <contour>
      <point x="80" y="280" type="line"/>
      <point x="80" y="359" type="line"/>
      <point x="400" y="600" type="line"/>
      <point x="440" y="520" type="line"/>
      <point x="160" y="320" type="line"/>
      <point x="440" y="120" type="line"/>
      <point x="400" y="40" type="line"/>
    </contour>
  </outline>
</glyph>
<glyph name="greater" format="1">
  <advance width="480"/>
  <unicode hex="003E"/>
  <outline>
    <contour>
      <point x="80" y="40" type="line"/>
      <point x="40" y="120" type="line"/>
      <point x="320" y="320" type="line"/>
      <point x="40" y="520" type="line"/>
      <point x="80" y="600" type="line"/>
      <point x="400" y="359" type="line"/>
      <point x="400" y="280" type="line"/>
    </contour>
  </outline>
</glyph>
<glyph name="at" format="1">
  <advance width="960"/>
  <unicode hex="0040"/>
  <outline>
    <contour>
      <point x="80" y="440" type="line"/>
      <point x="240" y="600" type="line"/>
      <point x="440" y="680" type="line"/>
      <point x="520" y="680" type="line"/>
      <point x="720" y="600" type="line"/>
      <point x="880" y="440" type="line"/>
      <point x="920" y="240" type="line"/>
      <point x="800" y="40" type="line"/>
      <point x="680" y="-40" type="line"/>
      <point x="560" y="-40" type="line"/>
      <point x="560" y="80" type="line"/>
      <point x="640" y="80" type="line"/>
      <point x="640" y="40" type="line"/>
      <point x="680" y="40" type="line"/>
      <point x="800" y="240" type="line"/>
      <point x="760" y="440" type="line"/>
      <point x="640" y="560" type="line"/>
      <point x="520" y="600" type="line"/>
      <point x="440" y="600" type="line"/>
      <point x="320" y="560" type="line"/>
      <point x="200" y="440" type="line"/>
      <point x="160" y="240" type="line"/>
      <point x="200" y="40" type="line"/>
      <point x="360" y="-120" type="line"/>
      <point x="280" y="-120" type="line"/>
      <point x="80" y="40" type="line"/>
      <point x="40" y="240" type="line"/>
    </contour>
    <contour>
      <point x="640" y="80" type="line"/>
      <point x="640" y="80" type="line"/>
      <point x="640" y="360" type="line"/>
      <point x="640" y="400" type="line"/>
      <point x="320" y="400" type="line"/>
      <point x="320" y="320" type="line"/>
      <point x="320" y="80" type="line"/>
      <point x="320" y="80" type="line"/>
    </contour>
  </outline>
</glyph>
<glyph name="A" format="1">
  <advance width="880"/>
  <unicode hex="0041"/>
  <outline>
    <contour>
      <point x="280" y="0" type="line"/>
      <point x="0" y="0" type="line"/>
      <point x="80" y="80" type="line"/>
      <point x="360" y="720" type="line"/>
      <point x="360" y="760" type="line"/>
      <point x="520" y="840" type="line"/>
      <point x="800" y="80" type="line"/>
      <point x="880" y="0" type="line"/>
      <point x="520" y="0" type="line"/>
      <point x="600" y="80" type="line"/>
      <point x="560" y="200" type="line"/>
      <point x="240" y="200" type="line"/>
      <point x="200" y="80" type="line"/>
    </contour>
    <contour>
      <point x="400" y="640" type="line"/>
      <point x="400" y="600" type="line"/>
      <point x="280" y="280" type="line"/>
      <point x="520" y="280" type="line"/>
    </contour>
    <contour>
      <point x="840" y="0" type="move" name="right"/>
    </contour>
    <contour>
      <point x="440" y="840" type="move" name="top"/>
    </contour>
  </outline>
</glyph>
<glyph name="D" format="1">
  <advance width="920"/>
  <unicode hex="0044"/>
  <outline>
    <contour>
      <point x="40" y="800" type="line"/>
      <point x="480" y="800" type="line"/>
      <point x="680" y="760" type="line"/>
      <point x="840" y="600" type="line"/>
      <point x="880" y="400" type="line"/>
      <point x="840" y="200" type="line"/>
      <point x="680" y="40" type="line"/>
      <point x="520" y="0" type="line"/>
      <point x="40" y="0" type="line"/>
      <point x="120" y="80" type="line"/>
      <point x="120" y="720" type="line"/>
    </contour>
    <contour>
      <point x="640" y="560" type="line"/>
      <point x="600" y="640" type="line"/>
      <point x="560" y="680" type="line"/>
      <point x="480" y="720" type="line"/>
      <point x="360" y="720" type="line"/>
      <point x="320" y="680" type="line"/>
      <point x="320" y="120" type="line"/>
      <point x="360" y="80" type="line"/>
      <point x="480" y="80" type="line"/>
      <point x="560" y="120" type="line"/>
      <point x="600" y="160" type="line"/>
      <point x="640" y="240" type="line"/>
    </contour>
    <contour>
      <point x="480" y="840" type="move" name="top"/>
    </contour>
  </outline>
</glyph>
<glyph name="G" format="1">
  <advance width="880"/>
  <unicode hex="0047"/>
  <outline>
    <contour>
      <point x="280" y="240" type="line"/>
      <point x="360" y="120" type="line"/>
      <point x="440" y="80" type="line"/>
      <point x="520" y="80" type="line"/>
      <point x="600" y="120" type="line"/>
      <point x="600" y="280" type="line"/>
      <point x="520" y="360" type="line"/>
      <point x="880" y="360" type="line"/>
      <point x="800" y="280" type="line"/>
      <point x="800" y="200" type="line"/>
      <point x="720" y="80" type="line"/>
      <point x="560" y="0" type="line"/>
      <point x="360" y="0" type="line"/>
      <point x="200" y="80" type="line"/>
      <point x="80" y="200" type="line"/>
      <point x="40" y="400" type="line"/>
      <point x="80" y="600" type="line"/>
      <point x="200" y="720" type="line"/>
      <point x="360" y="800" type="line"/>
      <point x="560" y="800" type="line"/>
      <point x="720" y="720" type="line"/>
      <point x="800" y="600" type="line"/>
      <point x="720" y="480" type="line"/>
      <point x="600" y="480" type="line"/>
      <point x="600" y="680" type="line"/>
      <point x="520" y="720" type="line"/>
      <point x="440" y="720" type="line"/>
      <point x="360" y="680" type="line"/>
      <point x="280" y="560" type="line"/>
    </contour>
    <contour>
      <point x="480" y="0" type="move" name="bottom"/>
    </contour>
    <contour>
      <point x="480" y="840" type="move" name="top"/>
    </contour>
  </outline>
</glyph>
<glyph name="H" format="1">
  <advance width="960"/>
  <unicode hex="0048"/>
  <outline>
    <contour>
      <point x="400" y="800" type="line"/>
      <point x="320" y="720" type="line"/>
      <point x="320" y="480" type="line"/>
      <point x="360" y="440" type="line"/>
      <point x="600" y="440" type="line"/>
      <point x="640" y="480" type="line"/>
      <point x="640" y="720" type="line"/>
      <point x="560" y="800" type="line"/>
      <point x="920" y="800" type="line"/>
      <point x="840" y="720" type="line"/>
      <point x="840" y="80" type="line"/>
      <point x="920" y="0" type="line"/>
      <point x="560" y="0" type="line"/>
      <point x="640" y="80" type="line"/>
      <point x="640" y="320" type="line"/>
      <point x="600" y="360" type="line"/>
      <point x="360" y="360" type="line"/>
      <point x="320" y="320" type="line"/>
      <point x="320" y="80" type="line"/>
      <point x="400" y="0" type="line"/>
      <point x="40" y="0" type="line"/>
      <point x="120" y="80" type="line"/>
      <point x="120" y="720" type="line"/>
      <point x="40" y="800" type="line"/>
    </contour>
    <contour>
      <point x="440" y="840" type="move" name="top"/>
    </contour>
  </outline>
</glyph>
<glyph name="I" format="1">
  <advance width="440"/>
  <unicode hex="0049"/>
  <outline>
    <contour>
      <point x="320" y="80" type="line"/>
      <point x="400" y="0" type="line"/>
      <point x="40" y="0" type="line"/>
      <point x="120" y="80" type="line"/>
      <point x="120" y="720" type="line"/>
      <point x="40" y="800" type="line"/>
      <point x="400" y="800" type="line"/>
      <point x="320" y="720" type="line"/>
    </contour>
    <contour>
      <point x="200" y="-30" type="move" name="bottom"/>
    </contour>
    <contour>
      <point x="200" y="0" type="move" name="right"/>
    </contour>
    <contour>
      <point x="200" y="840" type="move" name="top"/>
    </contour>
  </outline>
</glyph>
<glyph name="J" format="1">
  <advance width="400"/>
  <unicode hex="004A"/>
  <outline>
    <contour>
      <point x="-40" y="-80" type="line"/>
      <point x="80" y="40" type="line"/>
      <point x="120" y="120" type="line"/>
      <point x="120" y="720" type="line"/>
      <point x="40" y="800" type="line"/>
      <point x="400" y="800" type="line"/>
      <point x="320" y="720" type="line"/>
      <point x="320" y="120" type="line"/>
      <point x="200" y="-40" type="line"/>
      <point x="0" y="-120" type="line"/>
    </contour>
    <contour>
      <point x="200" y="840" type="move" name="top"/>
    </contour>
  </outline>
</glyph>
<glyph name="L" format="1">
  <advance width="680"/>
  <unicode hex="004C"/>
  <outline>
    <contour>
      <point x="560" y="0" type="line"/>
      <point x="40" y="0" type="line"/>
      <point x="120" y="80" type="line"/>
      <point x="120" y="720" type="line"/>
      <point x="40" y="800" type="line"/>
      <point x="400" y="800" type="line"/>
      <point x="320" y="720" type="line"/>
      <point x="320" y="120" type="line"/>
      <point x="360" y="80" type="line"/>
      <point x="520" y="80" type="line"/>
      <point x="640" y="280" type="line"/>
      <point x="680" y="280" type="line"/>
      <point x="640" y="-40" type="line"/>
    </contour>
    <contour>
      <point x="360" y="0" type="move" name="bottom"/>
    </contour>
    <contour>
      <point x="360" y="420" type="move" name="mid"/>
    </contour>
    <contour>
      <point x="360" y="830" type="move" name="right"/>
    </contour>
    <contour>
      <point x="40" y="830" type="move" name="top"/>
    </contour>
  </outline>
</glyph>
<glyph name="M" format="1">
  <advance width="1040"/>
  <unicode hex="004D"/>
  <outline>
    <contour>
      <point x="560" y="0" type="line" smooth="yes"/>
      <point x="760" y="600" type="line"/>
      <point x="760" y="80" type="line"/>
      <point x="680" y="0" type="line"/>
      <point x="1040" y="0" type="line"/>
      <point x="960" y="80" type="line"/>
      <point x="960" y="720" type="line"/>
      <point x="1040" y="800" type="line"/>
      <point x="760" y="800" type="line"/>
      <point x="560" y="200" type="line"/>
      <point x="560" y="240" type="line"/>
      <point x="360" y="800" type="line"/>
      <point x="40" y="800" type="line"/>
      <point x="120" y="720" type="line"/>
      <point x="120" y="80" type="line"/>
      <point x="40" y="0" type="line"/>
      <point x="320" y="0" type="line"/>
      <point x="240" y="80" type="line"/>
      <point x="200" y="640" type="line"/>
      <point x="440" y="-40" type="line"/>
    </contour>
  </outline>
</glyph>
<glyph name="N" format="1">
  <advance width="880"/>
  <unicode hex="004E"/>
  <outline>
    <contour>
      <point x="560" y="0" type="line"/>
      <point x="760" y="0" type="line"/>
      <point x="760" y="720" type="line"/>
      <point x="840" y="800" type="line"/>
      <point x="560" y="800" type="line"/>
      <point x="640" y="720" type="line"/>
      <point x="680" y="200" type="line"/>
      <point x="320" y="800" type="line"/>
      <point x="40" y="800" type="line"/>
      <point x="120" y="720" type="line"/>
      <point x="120" y="80" type="line"/>
      <point x="40" y="0" type="line"/>
      <point x="320" y="0" type="line"/>
      <point x="240" y="80" type="line"/>
      <point x="200" y="600" type="line"/>
    </contour>
    <contour>
      <point x="440" y="0" type="move" name="bottom"/>
    </contour>
    <contour>
      <point x="440" y="840" type="move" name="top"/>
    </contour>
  </outline>
</glyph>
<glyph name="P" format="1">
  <advance width="760"/>
  <unicode hex="0050"/>
  <outline>
    <contour>
      <point x="320" y="360" type="line" smooth="yes"/>
      <point x="320" y="80" type="line"/>
      <point x="400" y="0" type="line"/>
      <point x="40" y="0" type="line"/>
      <point x="120" y="80" type="line"/>
      <point x="120" y="720" type="line"/>
      <point x="40" y="800" type="line"/>
      <point x="520" y="800" type="line"/>
      <point x="640" y="760" type="line"/>
      <point x="760" y="600" type="line"/>
      <point x="680" y="400" type="line"/>
      <point x="480" y="320" type="line"/>
    </contour>
    <contour>
      <point x="360" y="720" type="line"/>
      <point x="320" y="680" type="line"/>
      <point x="320" y="400" type="line"/>
      <point x="440" y="400" type="line"/>
      <point x="520" y="440" type="line"/>
      <point x="560" y="560" type="line"/>
      <point x="520" y="680" type="line"/>
      <point x="440" y="720" type="line"/>
    </contour>
  </outline>
</glyph>
<glyph name="Q" format="1">
  <advance width="920"/>
  <unicode hex="0051"/>
  <outline>
    <contour>
      <point x="560" y="0" type="line"/>
      <point x="720" y="80" type="line"/>
      <point x="840" y="200" type="line"/>
      <point x="880" y="400" type="line"/>
      <point x="840" y="600" type="line"/>
      <point x="720" y="720" type="line"/>
      <point x="560" y="800" type="line"/>
      <point x="360" y="800" type="line"/>
      <point x="200" y="720" type="line"/>
      <point x="80" y="600" type="line"/>
      <point x="40" y="400" type="line"/>
      <point x="80" y="200" type="line"/>
      <point x="200" y="80" type="line"/>
      <point x="360" y="0" type="line"/>
      <point x="480" y="0" type="line"/>
      <point x="480" y="-40" type="line"/>
      <point x="520" y="-120" type="line"/>
      <point x="640" y="-200" type="line"/>
      <point x="760" y="-200" type="line"/>
      <point x="920" y="-120" type="line"/>
      <point x="920" y="-80" type="line"/>
      <point x="800" y="-80" type="line"/>
      <point x="640" y="-40" type="line"/>
    </contour>
    <contour>
      <point x="480" y="80" type="line"/>
      <point x="440" y="80" type="line"/>
      <point x="360" y="120" type="line"/>
      <point x="280" y="240" type="line"/>
      <point x="280" y="560" type="line"/>
      <point x="360" y="680" type="line"/>
      <point x="440" y="720" type="line"/>
      <point x="480" y="720" type="line"/>
      <point x="560" y="680" type="line"/>
      <point x="640" y="560" type="line"/>
      <point x="640" y="240" type="line"/>
      <point x="560" y="120" type="line"/>
    </contour>
    <contour>
      <point x="440" y="0" type="move" name="bottom"/>
    </contour>
    <contour>
      <point x="440" y="840" type="move" name="top"/>
    </contour>
  </outline>
</glyph>
<glyph name="U" format="1">
  <advance width="900"/>
  <unicode hex="0055"/>
  <outline>
    <contour>
      <point x="800" y="240" type="line"/>
      <point x="760" y="120" type="line"/>
      <point x="680" y="40" type="line"/>
      <point x="560" y="0" type="line"/>
      <point x="400" y="0" type="line"/>
      <point x="240" y="40" type="line"/>
      <point x="160" y="120" type="line"/>
      <point x="120" y="240" type="line"/>
      <point x="120" y="720" type="line"/>
      <point x="40" y="800" type="line"/>
      <point x="400" y="800" type="line"/>
      <point x="320" y="720" type="line"/>
      <point x="320" y="280" type="line"/>
      <point x="360" y="160" type="line"/>
      <point x="400" y="120" type="line"/>
      <point x="480" y="80" type="line"/>
      <point x="560" y="80" type="line"/>
      <point x="640" y="120" type="line"/>
      <point x="680" y="200" type="line"/>
      <point x="680" y="720" type="line"/>
      <point x="600" y="800" type="line"/>
      <point x="880" y="800" type="line"/>
      <point x="800" y="720" type="line"/>
    </contour>
    <contour>
      <point x="450" y="-30" type="move" name="bottom"/>
    </contour>
    <contour>
      <point x="450" y="0" type="move" name="right"/>
    </contour>
    <contour>
      <point x="480" y="840" type="move" name="top"/>
    </contour>
  </outline>
</glyph>
<glyph name="V" format="1">
  <advance width="760"/>
  <unicode hex="0056"/>
  <outline>
    <contour>
      <point x="440" y="160" type="line"/>
      <point x="600" y="720" type="line"/>
      <point x="520" y="800" type="line"/>
      <point x="840" y="800" type="line"/>
      <point x="760" y="720" type="line"/>
      <point x="440" y="0" type="line"/>
      <point x="320" y="-40" type="line"/>
      <point x="40" y="720" type="line"/>
      <point x="-40" y="800" type="line"/>
      <point x="360" y="800" type="line"/>
      <point x="280" y="720" type="line"/>
      <point x="440" y="240" type="line"/>
    </contour>
  </outline>
</glyph>
<glyph name="W" format="1">
  <advance width="1120"/>
  <unicode hex="0057"/>
  <outline>
    <contour>
      <point x="680" y="-40" type="line"/>
      <point x="800" y="0" type="line"/>
      <point x="1080" y="720" type="line"/>
      <point x="1160" y="800" type="line"/>
      <point x="840" y="800" type="line"/>
      <point x="920" y="720" type="line"/>
      <point x="800" y="200" type="line"/>
      <point x="800" y="280" type="line"/>
      <point x="680" y="760" type="line"/>
      <point x="480" y="720" type="line"/>
      <point x="400" y="200" type="line"/>
      <point x="400" y="280" type="line"/>
      <point x="280" y="720" type="line" smooth="yes"/>
      <point x="360" y="800" type="line"/>
      <point x="-40" y="800" type="line"/>
      <point x="40" y="720" type="line"/>
      <point x="280" y="-40" type="line"/>
      <point x="400" y="0" type="line"/>
      <point x="520" y="520" type="line"/>
    </contour>
    <contour>
      <point x="520" y="840" type="move" name="top"/>
    </contour>
  </outline>
</glyph>
<glyph name="Y" format="1">
  <advance width="760"/>
  <unicode hex="0059"/>
  <outline>
    <contour>
      <point x="440" y="440" type="line"/>
      <point x="440" y="400" type="line"/>
      <point x="600" y="720" type="line"/>
      <point x="520" y="800" type="line"/>
      <point x="800" y="800" type="line"/>
      <point x="720" y="720" type="line"/>
      <point x="480" y="360" type="line"/>
      <point x="480" y="80" type="line"/>
      <point x="560" y="0" type="line"/>
      <point x="200" y="0" type="line"/>
      <point x="280" y="80" type="line"/>
      <point x="280" y="360" type="line"/>
      <point x="40" y="720" type="line"/>
      <point x="-40" y="800" type="line"/>
      <point x="360" y="800" type="line"/>
      <point x="280" y="720" type="line"/>
    </contour>
    <contour>
      <point x="400" y="840" type="move" name="top"/>
    </contour>
  </outline>
</glyph>
<glyph name="bracketleft" format="1">
  <advance width="280"/>
  <unicode hex="005B"/>
  <outline>
    <contour>
      <point x="40" y="800" type="line"/>
      <point x="280" y="800" type="line"/>
      <point x="280" y="720" type="line"/>
      <point x="120" y="720" type="line"/>
      <point x="120" y="-80" type="line"/>
      <point x="280" y="-80" type="line"/>
      <point x="280" y="-160" type="line"/>
      <point x="40" y="-160" type="line"/>
    </contour>
  </outline>
</glyph>
<glyph name="bracketright" format="1">
  <advance width="280"/>
  <unicode hex="005D"/>
  <outline>
    <contour>
      <point x="240" y="-160" type="line"/>
      <point x="0" y="-160" type="line"/>
      <point x="0" y="-80" type="line"/>
      <point x="160" y="-80" type="line"/>
      <point x="160" y="720" type="line"/>
      <point x="0" y="720" type="line"/>
      <point x="0" y="800" type="line"/>
      <point x="240" y="800" type="line"/>
    </contour>
  </outline>
</glyph>
<glyph name="grave" format="1">
  <advance width="520"/>
  <unicode hex="0060"/>
  <outline>
    <contour>
      <point x="400" y="640" type="line"/>
      <point x="360" y="640" type="line"/>
      <point x="120" y="720" type="line"/>
      <point x="120" y="760" type="line"/>
      <point x="200" y="840" type="line"/>
      <point x="240" y="840" type="line"/>
    </contour>
    <contour>
      <point x="280" y="600" type="move" name="_top"/>
    </contour>
  </outline>
</glyph>
<glyph name="d" format="1">
  <advance width="760"/>
  <unicode hex="0064"/>
  <outline>
    <contour>
      <point x="640" y="840" type="line"/>
      <point x="640" y="160" type="line"/>
      <point x="680" y="160" type="line"/>
      <point x="760" y="200" type="line"/>
      <point x="760" y="120" type="line"/>
      <point x="600" y="0" type="line"/>
      <point x="560" y="0" type="line"/>
      <point x="520" y="120" type="line"/>
      <point x="400" y="0" type="line"/>
      <point x="320" y="0" type="line"/>
      <point x="160" y="40" type="line"/>
      <point x="40" y="200" type="line"/>
      <point x="40" y="400" type="line"/>
      <point x="160" y="560" type="line"/>
      <point x="280" y="600" type="line"/>
      <point x="360" y="600" type="line"/>
      <point x="440" y="520" type="line"/>
      <point x="440" y="680" type="line"/>
      <point x="360" y="760" type="line"/>
    </contour>
    <contour>
      <point x="320" y="480" type="line"/>
      <point x="240" y="400" type="line"/>
      <point x="240" y="240" type="line"/>
      <point x="320" y="120" type="line"/>
      <point x="400" y="120" type="line"/>
      <point x="440" y="200" type="line"/>
      <point x="440" y="400" type="line"/>
      <point x="400" y="480" type="line"/>
    </contour>
    <contour>
      <point x="720" y="880" type="move" name="right"/>
    </contour>
  </outline>
</glyph>
<glyph name="f" format="1">
  <advance width="480"/>
  <unicode hex="0066"/>
  <outline>
    <contour>
      <point x="320" y="560" type="line"/>
      <point x="440" y="560" type="line"/>
      <point x="440" y="480" type="line"/>
      <point x="360" y="480" type="line"/>
      <point x="320" y="440" type="line"/>
      <point x="320" y="80" type="line"/>
      <point x="400" y="0" type="line"/>
      <point x="40" y="0" type="line"/>
      <point x="120" y="80" type="line"/>
      <point x="120" y="440" type="line"/>
      <point x="40" y="480" type="line"/>
      <point x="40" y="560" type="line"/>
      <point x="120" y="560" type="line"/>
      <point x="120" y="680" type="line"/>
      <point x="160" y="760" type="line"/>
      <point x="200" y="800" type="line"/>
      <point x="360" y="840" type="line"/>
      <point x="480" y="800" type="line"/>
      <point x="520" y="680" type="line"/>
      <point x="440" y="600" type="line"/>
      <point x="320" y="680" type="line"/>
      <point x="360" y="760" type="line"/>
      <point x="320" y="760" type="line"/>
      <point x="280" y="720" type="line"/>
      <point x="280" y="640" type="line"/>
    </contour>
  </outline>
</glyph>
<glyph name="h" format="1">
  <advance width="800"/>
  <unicode hex="0068"/>
  <outline>
    <contour>
      <point x="40" y="0" type="line"/>
      <point x="120" y="80" type="line"/>
      <point x="120" y="680" type="line"/>
      <point x="40" y="760" type="line"/>
      <point x="320" y="840" type="line"/>
      <point x="320" y="480" type="line"/>
      <point x="400" y="560" type="line"/>
      <point x="480" y="600" type="line"/>
      <point x="600" y="560" type="line"/>
      <point x="680" y="480" type="line"/>
      <point x="680" y="80" type="line"/>
      <point x="760" y="0" type="line"/>
      <point x="440" y="0" type="line"/>
      <point x="480" y="80" type="line"/>
      <point x="480" y="400" type="line"/>
      <point x="440" y="440" type="line"/>
      <point x="400" y="440" type="line"/>
      <point x="320" y="400" type="line"/>
      <point x="320" y="80" type="line"/>
      <point x="360" y="0" type="line"/>
    </contour>
    <contour>
      <point x="400" y="0" type="move" name="bottom"/>
    </contour>
    <contour>
      <point x="80" y="880" type="move" name="top"/>
    </contour>
  </outline>
</glyph>
<glyph name="i" format="1">
  <advance width="440"/>
  <unicode hex="0069"/>
  <outline>
    <contour>
      <point x="200" y="600" type="line"/>
      <point x="80" y="680" type="line"/>
      <point x="80" y="720" type="line"/>
      <point x="160" y="840" type="line"/>
      <point x="200" y="840" type="line"/>
      <point x="320" y="760" type="line"/>
      <point x="320" y="720" type="line"/>
      <point x="240" y="600" type="line"/>
    </contour>
    <contour>
      <point x="40" y="520" type="line"/>
      <point x="320" y="600" type="line"/>
      <point x="320" y="80" type="line"/>
      <point x="400" y="0" type="line"/>
      <point x="40" y="0" type="line"/>
      <point x="120" y="80" type="line"/>
      <point x="120" y="440" type="line"/>
    </contour>
    <contour>
      <point x="360" y="0" type="move" name="right"/>
    </contour>
  </outline>
</glyph>
<glyph name="j" format="1">
  <advance width="360"/>
  <unicode hex="006A"/>
  <outline>
    <contour>
      <point x="0" y="520" type="line"/>
      <point x="280" y="600" type="line"/>
      <point x="280" y="0" type="line"/>
      <point x="200" y="-200" type="line"/>
      <point x="-40" y="-320" type="line"/>
      <point x="-80" y="-280" type="line"/>
      <point x="40" y="-160" type="line"/>
      <point x="80" y="-40" type="line"/>
      <point x="80" y="440" type="line"/>
    </contour>
    <contour>
      <point x="160" y="600" type="line"/>
      <point x="40" y="680" type="line"/>
      <point x="40" y="720" type="line"/>
      <point x="120" y="840" type="line"/>
      <point x="160" y="840" type="line"/>
      <point x="280" y="760" type="line"/>
      <point x="280" y="720" type="line"/>
      <point x="200" y="600" type="line"/>
    </contour>
  </outline>
</glyph>
<glyph name="k" format="1">
  <advance width="680"/>
  <unicode hex="006B"/>
  <outline>
    <contour>
      <point x="280" y="80" type="line"/>
      <point x="280" y="200" type="line"/>
      <point x="320" y="240" type="line"/>
      <point x="440" y="40" type="line"/>
      <point x="640" y="-40" type="line"/>
      <point x="680" y="0" type="line"/>
      <point x="480" y="360" type="line"/>
      <point x="680" y="560" type="line"/>
      <point x="280" y="560" type="line"/>
      <point x="400" y="480" type="line"/>
      <point x="280" y="280" type="line"/>
      <point x="280" y="840" type="line"/>
      <point x="0" y="760" type="line"/>
      <point x="80" y="680" type="line"/>
      <point x="80" y="80" type="line"/>
      <point x="0" y="0" type="line"/>
      <point x="360" y="0" type="line"/>
    </contour>
    <contour>
      <point x="360" y="0" type="move" name="bottom"/>
    </contour>
    <contour>
      <point x="40" y="880" type="move" name="top"/>
    </contour>
  </outline>
</glyph>
<glyph name="l" format="1">
  <advance width="400"/>
  <unicode hex="006C"/>
  <outline>
    <contour>
      <point x="0" y="760" type="line"/>
      <point x="280" y="840" type="line"/>
      <point x="280" y="80" type="line"/>
      <point x="360" y="0" type="line"/>
      <point x="0" y="0" type="line"/>
      <point x="80" y="80" type="line"/>
      <point x="80" y="680" type="line"/>
    </contour>
    <contour>
      <point x="160" y="0" type="move" name="bottom"/>
    </contour>
    <contour>
      <point x="160" y="280" type="move" name="mid"/>
    </contour>
    <contour>
      <point x="320" y="880" type="move" name="right"/>
    </contour>
    <contour>
      <point x="160" y="880" type="move" name="top"/>
    </contour>
  </outline>
</glyph>
<glyph name="m" format="1">
  <advance width="1160"/>
  <unicode hex="006D"/>
  <outline>
    <contour>
      <point x="40" y="0" type="line"/>
      <point x="120" y="80" type="line"/>
      <point x="120" y="440" type="line"/>
      <point x="40" y="520" type="line"/>
      <point x="320" y="600" type="line"/>
      <point x="240" y="440" type="line"/>
      <point x="280" y="440" type="line"/>
      <point x="360" y="560" type="line"/>
      <point x="440" y="600" type="line"/>
      <point x="600" y="560" type="line"/>
      <point x="680" y="480" type="line"/>
      <point x="760" y="560" type="line"/>
      <point x="840" y="600" type="line"/>
      <point x="1000" y="560" type="line"/>
      <point x="1040" y="480" type="line"/>
      <point x="1040" y="80" type="line"/>
      <point x="1120" y="0" type="line"/>
      <point x="800" y="0" type="line"/>
      <point x="840" y="80" type="line"/>
      <point x="840" y="420" type="line"/>
      <point x="800" y="460" type="line"/>
      <point x="760" y="460" type="line"/>
      <point x="680" y="400" type="line"/>
      <point x="680" y="80" type="line"/>
      <point x="720" y="0" type="line"/>
      <point x="440" y="0" type="line"/>
      <point x="480" y="80" type="line"/>
      <point x="480" y="400" type="line"/>
      <point x="440" y="440" type="line"/>
      <point x="400" y="440" type="line"/>
      <point x="320" y="400" type="line"/>
      <point x="320" y="80" type="line"/>
      <point x="360" y="0" type="line"/>
    </contour>
  </outline>
</glyph>
<glyph name="n" format="1">
  <advance width="800"/>
  <unicode hex="006E"/>
  <outline>
    <contour>
      <point x="40" y="0" type="line"/>
      <point x="120" y="80" type="line"/>
      <point x="120" y="440" type="line"/>
      <point x="40" y="520" type="line"/>
      <point x="320" y="600" type="line"/>
      <point x="240" y="440" type="line"/>
      <point x="280" y="440" type="line"/>
      <point x="360" y="560" type="line"/>
      <point x="440" y="600" type="line"/>
      <point x="600" y="560" type="line"/>
      <point x="680" y="480" type="line"/>
      <point x="680" y="80" type="line"/>
      <point x="760" y="0" type="line"/>
      <point x="440" y="0" type="line"/>
      <point x="480" y="80" type="line"/>
      <point x="480" y="400" type="line"/>
      <point x="440" y="440" type="line"/>
      <point x="400" y="440" type="line"/>
      <point x="320" y="400" type="line"/>
      <point x="320" y="80" type="line"/>
      <point x="360" y="0" type="line"/>
    </contour>
    <contour>
      <point x="440" y="0" type="move" name="bottom"/>
    </contour>
    <contour>
      <point x="400" y="600" type="move" name="top"/>
    </contour>
  </outline>
</glyph>
<glyph name="o" format="1">
  <advance width="720"/>
  <unicode hex="006F"/>
  <outline>
    <contour>
      <point x="280" y="600" type="line"/>
      <point x="440" y="600" type="line"/>
      <point x="600" y="520" type="line"/>
      <point x="680" y="400" type="line"/>
      <point x="680" y="200" type="line"/>
      <point x="600" y="80" type="line"/>
      <point x="440" y="0" type="line"/>
      <point x="280" y="0" type="line"/>
      <point x="120" y="80" type="line"/>
      <point x="40" y="200" type="line"/>
      <point x="40" y="400" type="line"/>
      <point x="120" y="520" type="line"/>
    </contour>
    <contour>
      <point x="360" y="520" type="line"/>
      <point x="280" y="480" type="line"/>
      <point x="240" y="320" type="line"/>
      <point x="280" y="120" type="line"/>
      <point x="360" y="80" type="line"/>
      <point x="440" y="120" type="line"/>
      <point x="480" y="280" type="line"/>
      <point x="440" y="480" type="line"/>
    </contour>
    <contour>
      <point x="300" y="0" type="move" name="bottom"/>
    </contour>
    <contour>
      <point x="360" y="600" type="move" name="top"/>
    </contour>
  </outline>
</glyph>
<glyph name="p" format="1">
  <advance width="720"/>
  <unicode hex="0070"/>
  <outline>
    <contour>
      <point x="440" y="600" type="line"/>
      <point x="560" y="560" type="line"/>
      <point x="680" y="400" type="line"/>
      <point x="680" y="200" type="line"/>
      <point x="560" y="40" type="line"/>
      <point x="440" y="0" type="line"/>
      <point x="360" y="0" type="line"/>
      <point x="280" y="80" type="line"/>
      <point x="280" y="-240" type="line"/>
      <point x="360" y="-320" type="line"/>
      <point x="0" y="-320" type="line"/>
      <point x="80" y="-240" type="line"/>
      <point x="80" y="440" type="line"/>
      <point x="0" y="520" type="line"/>
      <point x="280" y="600" type="line"/>
      <point x="200" y="440" type="line"/>
      <point x="240" y="440" type="line"/>
      <point x="360" y="560" type="line"/>
    </contour>
    <contour>
      <point x="360" y="440" type="line"/>
      <point x="280" y="400" type="line"/>
      <point x="280" y="200" type="line"/>
      <point x="320" y="120" type="line"/>
      <point x="400" y="120" type="line"/>
      <point x="480" y="200" type="line"/>
      <point x="480" y="360" type="line"/>
      <point x="400" y="440" type="line"/>
    </contour>
  </outline>
</glyph>
<glyph name="q" format="1">
  <advance width="720"/>
  <unicode hex="0071"/>
  <outline>
    <contour>
      <point x="720" y="560" type="line"/>
      <point x="640" y="440" type="line"/>
      <point x="640" y="-240" type="line"/>
      <point x="720" y="-320" type="line"/>
      <point x="360" y="-320" type="line"/>
      <point x="440" y="-240" type="line"/>
      <point x="440" y="80" type="line"/>
      <point x="360" y="0" type="line"/>
      <point x="280" y="0" type="line"/>
      <point x="160" y="40" type="line"/>
      <point x="40" y="200" type="line"/>
      <point x="40" y="400" type="line"/>
      <point x="160" y="560" type="line"/>
      <point x="280" y="600" type="line"/>
      <point x="360" y="600" type="line"/>
      <point x="480" y="520" type="line"/>
      <point x="560" y="640" type="line"/>
    </contour>
    <contour>
      <point x="400" y="480" type="line"/>
      <point x="320" y="480" type="line"/>
      <point x="240" y="400" type="line"/>
      <point x="240" y="240" type="line"/>
      <point x="320" y="120" type="line"/>
      <point x="400" y="120" type="line"/>
      <point x="440" y="200" type="line"/>
      <point x="440" y="400" type="line"/>
    </contour>
  </outline>
</glyph>
<glyph name="r" format="1">
  <advance width="560"/>
  <unicode hex="0072"/>
  <outline>
    <contour>
      <point x="320" y="600" type="line"/>
      <point x="240" y="440" type="line"/>
      <point x="240" y="440" type="line"/>
      <point x="280" y="440" type="line"/>
      <point x="360" y="560" type="line"/>
      <point x="480" y="600" type="line"/>
      <point x="560" y="520" type="line"/>
      <point x="560" y="440" type="line"/>
      <point x="480" y="320" type="line"/>
      <point x="400" y="320" type="line"/>
      <point x="400" y="440" type="line"/>
      <point x="360" y="440" type="line"/>
      <point x="320" y="400" type="line"/>
      <point x="320" y="80" type="line"/>
      <point x="400" y="0" type="line"/>
      <point x="40" y="0" type="line"/>
      <point x="120" y="80" type="line" smooth="yes"/>
      <point x="120" y="440" type="line"/>
      <point x="40" y="520" type="line"/>
    </contour>
    <contour>
      <point x="20" y="0" type="move" name="bottom"/>
    </contour>
    <contour>
      <point x="280" y="600" type="move" name="top"/>
    </contour>
  </outline>
</glyph>
<glyph name="s" format="1">
  <advance width="600"/>
  <unicode hex="0073"/>
  <outline>
    <contour>
      <point x="520" y="360" type="line"/>
      <point x="480" y="360" type="line"/>
      <point x="360" y="520" type="line"/>
      <point x="280" y="520" type="line" smooth="yes"/>
      <point x="240" y="480" type="line"/>
      <point x="240" y="440" type="line"/>
      <point x="520" y="280" type="line"/>
      <point x="560" y="200" type="line"/>
      <point x="520" y="80" type="line"/>
      <point x="400" y="0" type="line"/>
      <point x="240" y="0" type="line"/>
      <point x="120" y="40" type="line"/>
      <point x="80" y="0" type="line"/>
      <point x="40" y="240" type="line"/>
      <point x="80" y="240" type="line"/>
      <point x="200" y="80" type="line"/>
      <point x="320" y="80" type="line"/>
      <point x="360" y="120" type="line"/>
      <point x="360" y="160" type="line"/>
      <point x="80" y="320" type="line"/>
      <point x="40" y="400" type="line"/>
      <point x="80" y="520" type="line"/>
      <point x="240" y="600" type="line"/>
      <point x="440" y="560" type="line"/>
      <point x="480" y="600" type="line"/>
    </contour>
    <contour>
      <point x="244" y="0" type="move" name="bottom"/>
    </contour>
    <contour>
      <point x="280" y="600" type="move" name="top"/>
    </contour>
  </outline>
</glyph>
<glyph name="t" format="1">
  <advance width="480"/>
  <unicode hex="0074"/>
  <outline>
    <contour>
      <point x="280" y="720" type="line"/>
      <point x="280" y="560" type="line"/>
      <point x="440" y="560" type="line"/>
      <point x="440" y="480" type="line"/>
      <point x="280" y="440" type="line"/>
      <point x="280" y="160" type="line"/>
      <point x="360" y="120" type="line"/>
      <point x="440" y="200" type="line"/>
      <point x="480" y="160" type="line"/>
      <point x="400" y="40" type="line"/>
      <point x="280" y="0" type="line"/>
      <point x="200" y="0" type="line"/>
      <point x="80" y="120" type="line"/>
      <point x="80" y="440" type="line"/>
      <point x="0" y="480" type="line"/>
      <point x="0" y="520" type="line"/>
      <point x="120" y="560" type="line"/>
      <point x="200" y="640" type="line"/>
      <point x="240" y="720" type="line"/>
    </contour>
    <contour>
      <point x="200" y="0" type="move" name="bottom"/>
    </contour>
    <contour>
      <point x="400" y="680" type="move" name="right"/>
    </contour>
  </outline>
</glyph>
<glyph name="u" format="1">
  <advance width="760"/>
  <unicode hex="0075"/>
  <outline>
    <contour>
      <point x="760" y="120" type="line"/>
      <point x="600" y="0" type="line"/>
      <point x="560" y="0" type="line"/>
      <point x="480" y="120" type="line"/>
      <point x="400" y="40" type="line"/>
      <point x="280" y="0" type="line"/>
      <point x="160" y="40" type="line"/>
      <point x="80" y="160" type="line"/>
      <point x="80" y="440" type="line"/>
      <point x="0" y="520" type="line"/>
      <point x="280" y="600" type="line"/>
      <point x="280" y="160" type="line"/>
      <point x="320" y="120" type="line"/>
      <point x="360" y="120" type="line"/>
      <point x="440" y="160" type="line"/>
      <point x="440" y="440" type="line"/>
      <point x="360" y="520" type="line"/>
      <point x="640" y="600" type="line"/>
      <point x="640" y="160" type="line"/>
      <point x="680" y="160" type="line"/>
      <point x="760" y="200" type="line"/>
    </contour>
    <contour>
      <point x="330" y="0" type="move" name="bottom"/>
    </contour>
    <contour>
      <point x="640" y="0" type="move" name="right"/>
    </contour>
    <contour>
      <point x="360" y="600" type="move" name="top"/>
    </contour>
  </outline>
</glyph>
<glyph name="v" format="1">
  <advance width="680"/>
  <unicode hex="0076"/>
  <outline>
    <contour>
      <point x="400" y="0" type="line"/>
      <point x="240" y="0" type="line"/>
      <point x="40" y="480" type="line"/>
      <point x="-40" y="560" type="line"/>
      <point x="360" y="560" type="line"/>
      <point x="280" y="440" type="line"/>
      <point x="400" y="120" type="line"/>
      <point x="480" y="480" type="line"/>
      <point x="400" y="560" type="line"/>
      <point x="720" y="560" type="line"/>
      <point x="640" y="480" type="line"/>
      <point x="440" y="40" type="line"/>
    </contour>
  </outline>
</glyph>
<glyph name="x" format="1">
  <advance width="720"/>
  <unicode hex="0078"/>
  <outline>
    <contour>
      <point x="320" y="0" type="line"/>
      <point x="240" y="80" type="line"/>
      <point x="320" y="200" type="line"/>
      <point x="400" y="80" type="line"/>
      <point x="360" y="0" type="line"/>
      <point x="720" y="0" type="line"/>
      <point x="640" y="80" type="line"/>
      <point x="440" y="320" type="line"/>
      <point x="720" y="560" type="line"/>
      <point x="400" y="560" type="line"/>
      <point x="480" y="480" type="line"/>
      <point x="400" y="360" type="line"/>
      <point x="320" y="480" type="line"/>
      <point x="360" y="560" type="line"/>
      <point x="0" y="560" type="line"/>
      <point x="80" y="480" type="line"/>
      <point x="280" y="240" type="line"/>
      <point x="0" y="0" type="line"/>
    </contour>
  </outline>
</glyph>
<glyph name="y" format="1">
  <advance width="680"/>
  <unicode hex="0079"/>
  <outline>
    <contour>
      <point x="280" y="0" type="line"/>
      <point x="40" y="480" type="line"/>
      <point x="-40" y="560" type="line"/>
      <point x="360" y="560" type="line"/>
      <point x="280" y="440" type="line"/>
      <point x="400" y="160" type="line"/>
      <point x="480" y="480" type="line"/>
      <point x="400" y="560" type="line"/>
      <point x="720" y="560" type="line"/>
      <point x="640" y="480" type="line"/>
      <point x="360" y="-40" type="line"/>
      <point x="200" y="-320" type="line"/>
      <point x="40" y="-320" type="line"/>
      <point x="0" y="-280" type="line"/>
    </contour>
    <contour>
      <point x="360" y="600" type="move" name="top"/>
    </contour>
  </outline>
</glyph>
<glyph name="z" format="1">
  <advance width="640"/>
  <unicode hex="007A"/>
  <outline>
    <contour>
      <point x="440" y="80" type="line"/>
      <point x="560" y="240" type="line"/>
      <point x="600" y="240" type="line"/>
      <point x="560" y="0" type="line"/>
      <point x="40" y="0" type="line"/>
      <point x="40" y="80" type="line"/>
      <point x="360" y="480" type="line"/>
      <point x="240" y="480" type="line"/>
      <point x="120" y="360" type="line"/>
      <point x="80" y="360" type="line"/>
      <point x="120" y="600" type="line"/>
      <point x="160" y="560" type="line"/>
      <point x="600" y="560" type="line"/>
      <point x="600" y="520" type="line"/>
      <point x="280" y="120" type="line"/>
    </contour>
    <contour>
      <point x="320" y="600" type="move" name="top"/>
    </contour>
  </outline>
</glyph>
<glyph name="braceright" format="1">
  <advance width="320"/>
  <unicode hex="007D"/>
  <outline>
    <contour>
      <point x="0" y="800" type="line"/>
      <point x="120" y="760" type="line"/>
      <point x="280" y="600" type="line"/>
      <point x="240" y="400" type="line"/>
      <point x="320" y="320" type="line"/>
      <point x="240" y="240" type="line"/>
      <point x="280" y="40" type="line"/>
      <point x="120" y="-120" type="line"/>
      <point x="0" y="-160" type="line"/>
      <point x="0" y="-120" type="line"/>
      <point x="40" y="-80" type="line"/>
      <point x="80" y="40" type="line"/>
      <point x="80" y="160" type="line"/>
      <point x="120" y="280" type="line"/>
      <point x="240" y="320" type="line"/>
      <point x="120" y="360" type="line"/>
      <point x="80" y="480" type="line"/>
      <point x="80" y="600" type="line"/>
      <point x="40" y="720" type="line"/>
      <point x="0" y="760" type="line"/>
    </contour>
  </outline>
</glyph>
<glyph name="exclamdown" format="1">
  <advance width="320"/>
  <unicode hex="00A1"/>
  <outline>
    <contour>
      <point x="280" y="-160" type="line"/>
      <point x="280" y="40" type="line"/>
      <point x="200" y="320" type="line"/>
      <point x="160" y="320" type="line"/>
      <point x="40" y="40" type="line"/>
      <point x="40" y="-160" type="line"/>
      <point x="80" y="-200" type="line"/>
      <point x="240" y="-200" type="line"/>
    </contour>
    <component base="period" xScale="-1" yScale="-1" xOffset="320" yOffset="600"/>
  </outline>
</glyph>
<glyph name="cent" format="1">
  <advance width="640"/>
  <unicode hex="00A2"/>
  <outline>
    <contour>
      <point x="400" y="-40" type="line"/>
      <point x="240" y="840" type="line"/>
      <point x="280" y="840" type="line"/>
      <point x="440" y="-40" type="line"/>
    </contour>
    <component base="c" yOffset="80"/>
  </outline>
</glyph>
<glyph name="sterling" format="1">
  <advance width="720"/>
  <unicode hex="00A3"/>
  <outline>
    <contour>
      <point x="120" y="400" type="line"/>
      <point x="240" y="400" type="line"/>
      <point x="160" y="560" type="line"/>
      <point x="160" y="640" type="line"/>
      <point x="240" y="760" type="line"/>
      <point x="360" y="800" type="line"/>
      <point x="480" y="800" type="line"/>
      <point x="640" y="720" type="line"/>
      <point x="720" y="600" type="line"/>
      <point x="640" y="480" type="line"/>
      <point x="520" y="480" type="line"/>
      <point x="520" y="640" type="line"/>
      <point x="480" y="720" type="line"/>
      <point x="400" y="720" type="line"/>
      <point x="360" y="640" type="line"/>
      <point x="360" y="560" type="line"/>
      <point x="440" y="400" type="line"/>
      <point x="560" y="400" type="line"/>
      <point x="560" y="360" type="line"/>
      <point x="440" y="360" type="line"/>
      <point x="400" y="240" type="line"/>
      <point x="240" y="120" type="line"/>
      <point x="280" y="80" type="line"/>
      <point x="560" y="80" type="line"/>
      <point x="680" y="280" type="line"/>
      <point x="720" y="280" type="line"/>
      <point x="680" y="-40" type="line"/>
      <point x="600" y="0" type="line"/>
      <point x="40" y="0" type="line"/>
      <point x="40" y="40" type="line"/>
      <point x="160" y="120" type="line"/>
      <point x="240" y="320" type="line"/>
      <point x="240" y="360" type="line"/>
      <point x="120" y="360" type="line"/>
    </contour>
  </outline>
</glyph>
<glyph name="brokenbar" format="1">
  <advance width="160"/>
  <unicode hex="00A6"/>
  <outline>
    <contour>
      <point x="40" y="280" type="line"/>
      <point x="120" y="280" type="line"/>
      <point x="120" y="-80" type="line"/>
      <point x="40" y="-80" type="line"/>
    </contour>
    <contour>
      <point x="40" y="760" type="line"/>
      <point x="120" y="760" type="line"/>
      <point x="120" y="400" type="line"/>
      <point x="40" y="400" type="line"/>
    </contour>
  </outline>
</glyph>
<glyph name="dieresis" format="1">
  <advance width="680"/>
  <unicode hex="00A8"/>
  <outline>
    <contour>
      <point x="200" y="840" type="line"/>
      <point x="320" y="840" type="line"/>
      <point x="320" y="720" type="line"/>
      <point x="240" y="640" type="line"/>
      <point x="200" y="640" type="line"/>
      <point x="120" y="720" type="line"/>
      <point x="120" y="760" type="line"/>
    </contour>
    <contour>
      <point x="440" y="840" type="line"/>
      <point x="560" y="840" type="line"/>
      <point x="560" y="720" type="line"/>
      <point x="480" y="640" type="line"/>
      <point x="440" y="640" type="line"/>
      <point x="360" y="720" type="line"/>
      <point x="360" y="760" type="line"/>
    </contour>
    <contour>
      <point x="320" y="600" type="move" name="_top"/>
    </contour>
  </outline>
</glyph>
<glyph name="copyright" format="1">
  <advance width="833"/>
  <unicode hex="00A9"/>
  <outline>
    <contour>
      <point x="80" y="160" type="line"/>
      <point x="760" y="160" type="line"/>
      <point x="760" y="840" type="line"/>
      <point x="80" y="840" type="line"/>
    </contour>
    <contour>
      <point x="160" y="760" type="line"/>
      <point x="680" y="760" type="line"/>
      <point x="680" y="240" type="line"/>
      <point x="160" y="240" type="line"/>
    </contour>
    <contour>
      <point x="480" y="600" type="line"/>
      <point x="440" y="640" type="line"/>
      <point x="400" y="640" type="line"/>
      <point x="360" y="600" type="line"/>
      <point x="360" y="440" type="line"/>
      <point x="400" y="360" type="line"/>
      <point x="480" y="360" type="line"/>
      <point x="600" y="440" type="line"/>
      <point x="640" y="400" type="line"/>
      <point x="560" y="320" type="line"/>
      <point x="480" y="280" type="line"/>
      <point x="360" y="280" type="line"/>
      <point x="240" y="360" type="line"/>
      <point x="200" y="440" type="line"/>
      <point x="200" y="560" type="line"/>
      <point x="240" y="640" type="line"/>
      <point x="400" y="720" type="line"/>
      <point x="480" y="720" type="line"/>
      <point x="600" y="680" type="line"/>
      <point x="640" y="600" type="line"/>
      <point x="600" y="520" type="line"/>
      <point x="480" y="520" type="line"/>
    </contour>
  </outline>
</glyph>
<glyph name="guillemotleft" format="1">
  <advance width="520"/>
  <unicode hex="00AB"/>
  <outline>
    <contour>
      <point x="0" y="320" type="line"/>
      <point x="280" y="600" type="line"/>
      <point x="320" y="520" type="line"/>
      <point x="120" y="320" type="line"/>
      <point x="320" y="120" type="line"/>
      <point x="280" y="40" type="line"/>
    </contour>
    <contour>
      <point x="240" y="280" type="line"/>
      <point x="240" y="360" type="line"/>
      <point x="480" y="600" type="line"/>
      <point x="520" y="520" type="line"/>
      <point x="320" y="320" type="line"/>
      <point x="520" y="120" type="line"/>
      <point x="480" y="40" type="line"/>
    </contour>
  </outline>
</glyph>
<glyph name="macron" format="1">
  <advance width="560"/>
  <unicode hex="00AF"/>
  <outline>
    <contour>
      <point x="120" y="680" type="line"/>
      <point x="120" y="600" type="line"/>
      <point x="440" y="600" type="line"/>
      <point x="440" y="680" type="line"/>
    </contour>
  </outline>
</glyph>
<glyph name="degree" format="1">
  <advance width="480"/>
  <unicode hex="00B0"/>
  <outline>
    <contour>
      <point x="80" y="760" type="line"/>
      <point x="80" y="680" type="line"/>
      <point x="200" y="560" type="line"/>
      <point x="280" y="560" type="line"/>
      <point x="400" y="680" type="line"/>
      <point x="400" y="760" type="line"/>
      <point x="280" y="880" type="line"/>
      <point x="200" y="880" type="line"/>
    </contour>
    <contour>
      <point x="200" y="680" type="line"/>
      <point x="200" y="760" type="line"/>
      <point x="240" y="760" type="line"/>
      <point x="280" y="760" type="line"/>
      <point x="280" y="680" type="line"/>
      <point x="240" y="680" type="line"/>
    </contour>
  </outline>
</glyph>
<glyph name="plusminus" format="1">
  <advance width="600"/>
  <unicode hex="00B1"/>
  <outline>
    <contour>
      <point x="0" y="480" type="line"/>
      <point x="240" y="480" type="line"/>
      <point x="240" y="720" type="line"/>
      <point x="320" y="720" type="line"/>
      <point x="320" y="480" type="line"/>
      <point x="560" y="480" type="line"/>
      <point x="560" y="400" type="line"/>
      <point x="320" y="400" type="line"/>
      <point x="320" y="160" type="line"/>
      <point x="240" y="160" type="line"/>
      <point x="240" y="400" type="line"/>
      <point x="0" y="400" type="line"/>
    </contour>
    <component base="minus" yOffset="-280"/>
  </outline>
</glyph>
<glyph name="paragraph" format="1">
  <advance width="520"/>
  <unicode hex="00B6"/>
  <outline>
    <contour>
      <point x="400" y="760" type="line"/>
      <point x="320" y="760" type="line"/>
      <point x="320" y="-320" type="line"/>
      <point x="280" y="-320" type="line"/>
      <point x="280" y="320" type="line"/>
      <point x="200" y="320" type="line"/>
      <point x="80" y="360" type="line"/>
      <point x="0" y="520" type="line"/>
      <point x="0" y="600" type="line"/>
      <point x="80" y="760" type="line"/>
      <point x="200" y="800" type="line"/>
      <point x="440" y="800" type="line"/>
      <point x="440" y="-320" type="line"/>
      <point x="400" y="-320" type="line"/>
    </contour>
  </outline>
</glyph>
<glyph name="periodcentered" format="1">
  <advance width="320"/>
  <unicode hex="00B7"/>
  <outline>
    <contour>
      <point x="200" y="160" type="line"/>
      <point x="280" y="280" type="line"/>
      <point x="280" y="320" type="line"/>
      <point x="160" y="400" type="line"/>
      <point x="120" y="400" type="line"/>
      <point x="40" y="280" type="line"/>
      <point x="40" y="240" type="line"/>
      <point x="160" y="160" type="line"/>
    </contour>
  </outline>
</glyph>
<glyph name="cedilla" format="1">
  <advance width="250"/>
  <unicode hex="00B8"/>
  <outline>
    <contour>
      <point x="40" y="-40" type="line"/>
      <point x="120" y="40" type="line"/>
      <point x="160" y="0" type="line"/>
      <point x="120" y="-40" type="line"/>
      <point x="240" y="-80" type="line"/>
      <point x="240" y="-160" type="line"/>
      <point x="160" y="-240" type="line"/>
      <point x="0" y="-240" type="line"/>
      <point x="0" y="-160" type="line"/>
      <point x="40" y="-160" type="line"/>
      <point x="160" y="-160" type="line"/>
      <point x="40" y="-80" type="line"/>
    </contour>
    <contour>
      <point x="120" y="0" type="move" name="_bottom"/>
    </contour>
  </outline>
</glyph>
<glyph name="guillemotright" format="1">
  <advance width="520"/>
  <unicode hex="00BB"/>
  <outline>
    <contour>
      <point x="520" y="320" type="line"/>
      <point x="240" y="40" type="line"/>
      <point x="200" y="120" type="line"/>
      <point x="400" y="320" type="line"/>
      <point x="200" y="520" type="line"/>
      <point x="240" y="600" type="line"/>
    </contour>
    <contour>
      <point x="280" y="360" type="line"/>
      <point x="280" y="280" type="line"/>
      <point x="40" y="40" type="line"/>
      <point x="0" y="120" type="line"/>
      <point x="200" y="320" type="line"/>
      <point x="0" y="520" type="line"/>
      <point x="40" y="600" type="line"/>
    </contour>
  </outline>
</glyph>
<glyph name="onequarter" format="1">
  <advance width="1100"/>
  <unicode hex="00BC"/>
  <outline>
    <contour>
      <point x="240" y="760" type="line"/>
      <point x="360" y="800" type="line"/>
      <point x="360" y="320" type="line"/>
      <point x="440" y="240" type="line"/>
      <point x="120" y="240" type="line"/>
      <point x="200" y="320" type="line"/>
      <point x="200" y="600" type="line"/>
      <point x="120" y="600" type="line"/>
      <point x="120" y="640" type="line"/>
      <point x="200" y="680" type="line"/>
    </contour>
    <contour>
      <point x="760" y="200" type="line"/>
      <point x="760" y="520" type="line"/>
      <point x="680" y="240" type="line"/>
    </contour>
    <contour>
      <point x="720" y="560" type="line"/>
      <point x="920" y="600" type="line"/>
      <point x="920" y="200" type="line"/>
      <point x="1000" y="200" type="line"/>
      <point x="1000" y="160" type="line"/>
      <point x="920" y="160" type="line"/>
      <point x="920" y="80" type="line"/>
      <point x="1000" y="0" type="line"/>
      <point x="680" y="0" type="line"/>
      <point x="760" y="80" type="line"/>
      <point x="760" y="160" type="line"/>
      <point x="560" y="160" type="line"/>
      <point x="520" y="240" type="line"/>
    </contour>
    <component base="fraction" xOffset="360" yOffset="-40"/>
  </outline>
</glyph>
<glyph name="threequarters" format="1">
  <advance width="1200"/>
  <unicode hex="00BE"/>
  <outline>
    <contour>
      <point x="880" y="560" type="line"/>
      <point x="1080" y="600" type="line"/>
      <point x="1080" y="200" type="line"/>
      <point x="1160" y="200" type="line"/>
      <point x="1160" y="160" type="line"/>
      <point x="1080" y="160" type="line"/>
      <point x="1080" y="80" type="line"/>
      <point x="1160" y="0" type="line"/>
      <point x="840" y="0" type="line"/>
      <point x="920" y="80" type="line"/>
      <point x="920" y="160" type="line"/>
      <point x="680" y="160" type="line"/>
      <point x="640" y="240" type="line"/>
    </contour>
    <contour>
      <point x="400" y="560" type="line"/>
      <point x="480" y="520" type="line"/>
      <point x="520" y="440" type="line"/>
      <point x="520" y="400" type="line"/>
      <point x="480" y="320" type="line"/>
      <point x="360" y="240" type="line"/>
      <point x="280" y="240" type="line"/>
      <point x="160" y="280" type="line"/>
      <point x="120" y="320" type="line"/>
      <point x="80" y="400" type="line"/>
      <point x="160" y="480" type="line"/>
      <point x="240" y="480" type="line"/>
      <point x="240" y="360" type="line"/>
      <point x="280" y="320" type="line"/>
      <point x="320" y="280" type="line"/>
      <point x="360" y="320" type="line"/>
      <point x="360" y="400" type="line"/>
      <point x="360" y="440" type="line"/>
      <point x="320" y="520" type="line"/>
      <point x="240" y="520" type="line"/>
      <point x="240" y="560" type="line"/>
      <point x="320" y="560" type="line"/>
      <point x="360" y="600" type="line"/>
      <point x="360" y="680" type="line"/>
      <point x="280" y="720" type="line"/>
      <point x="240" y="680" type="line"/>
      <point x="240" y="600" type="line"/>
      <point x="120" y="600" type="line"/>
      <point x="120" y="680" type="line"/>
      <point x="160" y="760" type="line"/>
      <point x="320" y="800" type="line"/>
      <point x="440" y="760" type="line"/>
      <point x="520" y="680" type="line"/>
      <point x="480" y="600" type="line"/>
    </contour>
    <contour>
      <point x="920" y="200" type="line"/>
      <point x="920" y="520" type="line"/>
      <point x="800" y="240" type="line"/>
    </contour>
    <component base="fraction" xOffset="440" yOffset="-40"/>
  </outline>
</glyph>
<glyph name="AE" format="1">
  <advance width="1120"/>
  <unicode hex="00C6"/>
  <outline>
    <contour>
      <point x="1080" y="280" type="line"/>
      <point x="1040" y="-40" type="line"/>
      <point x="960" y="0" type="line"/>
      <point x="440" y="0" type="line"/>
      <point x="520" y="80" type="line"/>
      <point x="520" y="240" type="line"/>
      <point x="280" y="240" type="line"/>
      <point x="200" y="80" type="line"/>
      <point x="280" y="0" type="line"/>
      <point x="0" y="0" type="line"/>
      <point x="80" y="80" type="line"/>
      <point x="480" y="800" type="line"/>
      <point x="840" y="800" type="line"/>
      <point x="1000" y="840" type="line"/>
      <point x="1040" y="560" type="line"/>
      <point x="1000" y="560" type="line"/>
      <point x="880" y="720" type="line"/>
      <point x="760" y="720" type="line"/>
      <point x="720" y="680" type="line"/>
      <point x="720" y="480" type="line"/>
      <point x="760" y="440" type="line"/>
      <point x="840" y="440" type="line"/>
      <point x="960" y="560" type="line"/>
      <point x="960" y="240" type="line"/>
      <point x="840" y="360" type="line"/>
      <point x="760" y="360" type="line"/>
      <point x="720" y="320" type="line"/>
      <point x="720" y="120" type="line"/>
      <point x="760" y="80" type="line"/>
      <point x="920" y="80" type="line"/>
      <point x="1040" y="280" type="line"/>
    </contour>
    <contour>
      <point x="320" y="320" type="line"/>
      <point x="520" y="320" type="line"/>
      <point x="520" y="720" type="line"/>
    </contour>
    <contour>
      <point x="560" y="0" type="move" name="bottom"/>
    </contour>
    <contour>
      <point x="760" y="840" type="move" name="top"/>
    </contour>
  </outline>
</glyph>
<glyph name="multiply" format="1">
  <advance width="641"/>
  <unicode hex="00D7"/>
  <outline>
    <contour>
      <point x="81" y="160" type="line"/>
      <point x="281" y="320" type="line"/>
      <point x="80" y="480" type="line"/>
      <point x="161" y="560" type="line"/>
      <point x="321" y="360" type="line"/>
      <point x="481" y="560" type="line"/>
      <point x="561" y="480" type="line"/>
      <point x="361" y="320" type="line"/>
      <point x="561" y="160" type="line"/>
      <point x="481" y="80" type="line"/>
      <point x="321" y="280" type="line"/>
      <point x="161" y="80" type="line"/>
    </contour>
  </outline>
</glyph>
<glyph name="ae" format="1">
  <advance width="880"/>
  <unicode hex="00E6"/>
  <outline>
    <contour>
      <point x="320" y="40" type="line"/>
      <point x="240" y="0" type="line"/>
      <point x="200" y="0" type="line"/>
      <point x="80" y="40" type="line"/>
      <point x="0" y="160" type="line"/>
      <point x="40" y="280" type="line"/>
      <point x="120" y="320" type="line"/>
      <point x="320" y="360" type="line"/>
      <point x="320" y="440" type="line"/>
      <point x="240" y="480" type="line"/>
      <point x="160" y="480" type="line"/>
      <point x="80" y="400" type="line"/>
      <point x="40" y="520" type="line"/>
      <point x="240" y="600" type="line"/>
      <point x="440" y="560" type="line"/>
      <point x="480" y="480" type="line"/>
      <point x="520" y="560" type="line"/>
      <point x="600" y="600" type="line"/>
      <point x="720" y="600" type="line"/>
      <point x="840" y="560" type="line"/>
      <point x="880" y="440" type="line"/>
      <point x="800" y="320" type="line"/>
      <point x="520" y="280" type="line"/>
      <point x="520" y="240" type="line"/>
      <point x="600" y="120" type="line"/>
      <point x="680" y="80" type="line"/>
      <point x="760" y="120" type="line"/>
      <point x="840" y="200" type="line"/>
      <point x="880" y="160" type="line"/>
      <point x="760" y="40" type="line"/>
      <point x="680" y="0" type="line"/>
      <point x="600" y="0" type="line"/>
      <point x="480" y="40" type="line"/>
      <point x="400" y="120" type="line"/>
    </contour>
    <contour>
      <point x="320" y="320" type="line"/>
      <point x="240" y="240" type="line"/>
      <point x="200" y="160" type="line"/>
      <point x="240" y="80" type="line"/>
      <point x="280" y="80" type="line"/>
      <point x="320" y="160" type="line"/>
    </contour>
    <contour>
      <point x="640" y="520" type="line"/>
      <point x="560" y="480" type="line"/>
      <point x="520" y="320" type="line"/>
      <point x="720" y="400" type="line"/>
      <point x="720" y="480" type="line"/>
    </contour>
  </outline>
</glyph>
<glyph name="divide" format="1">
  <advance width="480"/>
  <unicode hex="00F7"/>
  <outline>
    <contour>
      <point x="80" y="360" type="line"/>
      <point x="440" y="360" type="line"/>
      <point x="440" y="280" type="line"/>
      <point x="80" y="280" type="line"/>
    </contour>
    <contour>
      <point x="240" y="560" type="line"/>
      <point x="280" y="560" type="line"/>
      <point x="320" y="520" type="line"/>
      <point x="320" y="480" type="line"/>
      <point x="280" y="440" type="line"/>
      <point x="240" y="440" type="line"/>
      <point x="200" y="480" type="line"/>
      <point x="200" y="520" type="line"/>
    </contour>
    <contour>
      <point x="280" y="80" type="line"/>
      <point x="240" y="80" type="line"/>
      <point x="200" y="120" type="line"/>
      <point x="200" y="160" type="line"/>
      <point x="240" y="200" type="line"/>
      <point x="280" y="200" type="line"/>
      <point x="320" y="160" type="line"/>
      <point x="320" y="120" type="line"/>
    </contour>
  </outline>
</glyph>
<glyph name="OE" format="1">
  <advance width="1080"/>
  <unicode hex="0152"/>
  <outline>
    <contour>
      <point x="440" y="80" type="line"/>
      <point x="360" y="120" type="line"/>
      <point x="280" y="240" type="line"/>
      <point x="280" y="560" type="line"/>
      <point x="360" y="680" type="line"/>
      <point x="440" y="720" type="line"/>
      <point x="480" y="720" type="line"/>
      <point x="480" y="80" type="line"/>
    </contour>
    <contour>
      <point x="1040" y="280" type="line"/>
      <point x="1000" y="280" type="line"/>
      <point x="880" y="80" type="line"/>
      <point x="720" y="80" type="line"/>
      <point x="680" y="120" type="line"/>
      <point x="680" y="320" type="line"/>
      <point x="720" y="360" type="line"/>
      <point x="800" y="360" type="line"/>
      <point x="920" y="240" type="line"/>
      <point x="920" y="560" type="line"/>
      <point x="800" y="440" type="line"/>
      <point x="720" y="440" type="line"/>
      <point x="680" y="480" type="line"/>
      <point x="680" y="680" type="line"/>
      <point x="720" y="720" type="line"/>
      <point x="840" y="720" type="line"/>
      <point x="960" y="560" type="line"/>
      <point x="1000" y="560" type="line"/>
      <point x="960" y="840" type="line"/>
      <point x="800" y="800" type="line"/>
      <point x="360" y="800" type="line"/>
      <point x="200" y="720" type="line"/>
      <point x="80" y="600" type="line"/>
      <point x="40" y="400" type="line"/>
      <point x="80" y="200" type="line"/>
      <point x="200" y="80" type="line"/>
      <point x="360" y="0" type="line"/>
      <point x="920" y="0" type="line"/>
      <point x="1000" y="-40" type="line"/>
    </contour>
    <contour>
      <point x="760" y="0" type="move" name="bottom"/>
    </contour>
    <contour>
      <point x="1080" y="0" type="move" name="right"/>
    </contour>
    <contour>
      <point x="720" y="840" type="move" name="top"/>
    </contour>
  </outline>
</glyph>
<glyph name="oe" format="1">
  <advance width="1000"/>
  <unicode hex="0153"/>
  <outline>
    <contour>
      <point x="760" y="520" type="line"/>
      <point x="680" y="480" type="line"/>
      <point x="640" y="320" type="line"/>
      <point x="840" y="400" type="line"/>
      <point x="840" y="480" type="line"/>
    </contour>
    <contour>
      <point x="360" y="520" type="line"/>
      <point x="280" y="480" type="line"/>
      <point x="240" y="320" type="line"/>
      <point x="280" y="120" type="line"/>
      <point x="360" y="80" type="line"/>
      <point x="440" y="120" type="line"/>
      <point x="480" y="280" type="line"/>
      <point x="440" y="480" type="line"/>
    </contour>
    <contour>
      <point x="520" y="120" type="line"/>
      <point x="440" y="40" type="line"/>
      <point x="360" y="0" type="line"/>
      <point x="280" y="0" type="line"/>
      <point x="120" y="80" type="line"/>
      <point x="40" y="200" type="line"/>
      <point x="40" y="400" type="line"/>
      <point x="120" y="520" type="line"/>
      <point x="280" y="600" type="line"/>
      <point x="440" y="600" type="line"/>
      <point x="520" y="560" type="line"/>
      <point x="600" y="480" type="line"/>
      <point x="640" y="560" type="line"/>
      <point x="720" y="600" type="line"/>
      <point x="840" y="600" type="line"/>
      <point x="960" y="560" type="line"/>
      <point x="1000" y="440" type="line"/>
      <point x="920" y="320" type="line"/>
      <point x="640" y="280" type="line"/>
      <point x="640" y="240" type="line"/>
      <point x="720" y="120" type="line"/>
      <point x="800" y="80" type="line"/>
      <point x="880" y="120" type="line"/>
      <point x="960" y="200" type="line"/>
      <point x="1000" y="160" type="line"/>
      <point x="880" y="40" type="line"/>
      <point x="800" y="0" type="line"/>
      <point x="720" y="0" type="line"/>
      <point x="600" y="40" type="line"/>
    </contour>
    <contour>
      <point x="400" y="0" type="move" name="bottom"/>
    </contour>
    <contour>
      <point x="400" y="600" type="move" name="top"/>
    </contour>
  </outline>
</glyph>
<glyph name="BITCOIN" format="1">
  <advance width="760"/>
  <unicode hex="0243"/>
  <outline>
    <contour>
      <point x="0" y="280" type="line"/>
      <point x="400" y="280" type="line"/>
      <point x="400" y="240" type="line"/>
      <point x="0" y="240" type="line"/>
    </contour>
    <component base="B"/>
  </outline>
</glyph>
<glyph name="caron" format="1">
  <advance width="640"/>
  <unicode hex="02C7"/>
  <outline>
    <contour>
      <point x="160" y="840" type="line"/>
      <point x="320" y="760" type="line"/>
      <point x="480" y="840" type="line"/>
      <point x="520" y="840" type="line"/>
      <point x="360" y="640" type="line"/>
      <point x="280" y="640" type="line"/>
      <point x="120" y="840" type="line"/>
    </contour>
    <contour>
      <point x="320" y="600" type="move" name="_top"/>
    </contour>
  </outline>
</glyph>
<glyph name="dotaccent" format="1">
  <advance width="833"/>
  <unicode hex="02D9"/>
  <outline>
    <contour>
      <point x="400" y="640" type="line"/>
      <point x="480" y="760" type="line"/>
      <point x="480" y="800" type="line"/>
      <point x="360" y="880" type="line"/>
      <point x="320" y="880" type="line"/>
      <point x="240" y="760" type="line"/>
      <point x="240" y="720" type="line"/>
      <point x="360" y="640" type="line"/>
    </contour>
    <contour>
      <point x="280" y="80" type="move" name="_right"/>
    </contour>
    <contour>
      <point x="360" y="600" type="move" name="_top"/>
    </contour>
  </outline>
</glyph>
<glyph name="ring" format="1">
  <advance width="840"/>
  <unicode hex="02DA"/>
  <outline>
    <contour>
      <point x="200" y="760" type="line"/>
      <point x="200" y="720" type="line"/>
      <point x="280" y="640" type="line"/>
      <point x="320" y="640" type="line"/>
      <point x="400" y="720" type="line"/>
      <point x="400" y="760" type="line"/>
      <point x="320" y="840" type="line"/>
      <point x="280" y="840" type="line"/>
    </contour>
    <contour>
      <point x="280" y="720" type="line"/>
      <point x="280" y="760" type="line"/>
      <point x="280" y="760" type="line"/>
      <point x="320" y="760" type="line"/>
      <point x="320" y="760" type="line"/>
      <point x="320" y="720" type="line"/>
      <point x="320" y="720" type="line"/>
      <point x="280" y="720" type="line"/>
    </contour>
    <contour>
      <point x="300" y="600" type="move" name="_top"/>
    </contour>
  </outline>
</glyph>
<glyph name="tilde" format="1">
  <advance width="680"/>
  <unicode hex="02DC"/>
  <outline>
    <contour>
      <point x="520" y="760" type="line"/>
      <point x="560" y="720" type="line"/>
      <point x="440" y="560" type="line"/>
      <point x="400" y="560" type="line"/>
      <point x="280" y="640" type="line"/>
      <point x="160" y="560" type="line"/>
      <point x="120" y="600" type="line"/>
      <point x="240" y="760" type="line"/>
      <point x="280" y="760" type="line"/>
      <point x="400" y="680" type="line"/>
    </contour>
    <contour>
      <point x="320" y="520" type="move" name="_top"/>
    </contour>
  </outline>
</glyph>
<glyph name="macroncomb" format="1">
  <advance width="560"/>
  <unicode hex="0304"/>
  <outline>
    <contour>
      <point x="120" y="680" type="line"/>
      <point x="120" y="600" type="line"/>
      <point x="440" y="600" type="line"/>
      <point x="440" y="680" type="line"/>
    </contour>
    <contour>
      <point x="280" y="520" type="move" name="_top"/>
    </contour>
  </outline>
</glyph>
<glyph name="endash" format="1">
  <advance width="480"/>
  <unicode hex="2013"/>
  <outline>
    <contour>
      <point x="80" y="320" type="line"/>
      <point x="400" y="320" type="line"/>
      <point x="400" y="240" type="line"/>
      <point x="80" y="240" type="line"/>
    </contour>
  </outline>
</glyph>
<glyph name="quotesinglbase" format="1">
  <advance width="200"/>
  <unicode hex="201A"/>
  <outline>
    <contour>
      <point x="40" y="-160" type="line"/>
      <point x="0" y="-160" type="line"/>
      <point x="0" y="40" type="line"/>
      <point x="80" y="120" type="line"/>
      <point x="120" y="120" type="line"/>
      <point x="200" y="40" type="line"/>
      <point x="200" y="0" type="line"/>
    </contour>
  </outline>
</glyph>
<glyph name="quotedblbase" format="1">
  <advance width="440"/>
  <unicode hex="201E"/>
  <outline>
    <contour>
      <point x="40" y="-160" type="line"/>
      <point x="0" y="-160" type="line"/>
      <point x="0" y="40" type="line"/>
      <point x="80" y="120" type="line"/>
      <point x="120" y="120" type="line"/>
      <point x="200" y="40" type="line"/>
      <point x="200" y="0" type="line"/>
    </contour>
    <contour>
      <point x="280" y="-160" type="line"/>
      <point x="240" y="-160" type="line"/>
      <point x="240" y="40" type="line"/>
      <point x="320" y="120" type="line"/>
      <point x="360" y="120" type="line"/>
      <point x="440" y="40" type="line"/>
      <point x="440" y="0" type="line"/>
    </contour>
  </outline>
</glyph>
<glyph name="dagger" format="1">
  <advance width="440"/>
  <unicode hex="2020"/>
  <outline>
    <contour>
      <point x="0" y="600" type="line"/>
      <point x="40" y="640" type="line"/>
      <point x="200" y="560" type="line"/>
      <point x="120" y="800" type="line"/>
      <point x="160" y="840" type="line"/>
      <point x="280" y="840" type="line"/>
      <point x="320" y="800" type="line"/>
      <point x="240" y="560" type="line"/>
      <point x="400" y="640" type="line"/>
      <point x="440" y="600" type="line"/>
      <point x="440" y="480" type="line"/>
      <point x="400" y="440" type="line"/>
      <point x="240" y="520" type="line"/>
      <point x="320" y="40" type="line"/>
      <point x="280" y="0" type="line"/>
      <point x="160" y="0" type="line"/>
      <point x="120" y="40" type="line"/>
      <point x="200" y="520" type="line"/>
      <point x="40" y="440" type="line"/>
      <point x="0" y="480" type="line"/>
    </contour>
  </outline>
</glyph>
<glyph name="bullet" format="1">
  <advance width="440"/>
  <unicode hex="2022"/>
  <outline>
    <contour>
      <point x="320" y="120" type="line"/>
      <point x="400" y="240" type="line"/>
      <point x="400" y="400" type="line"/>
      <point x="280" y="480" type="line"/>
      <point x="120" y="480" type="line"/>
      <point x="40" y="360" type="line"/>
      <point x="40" y="200" type="line"/>
      <point x="160" y="120" type="line"/>
    </contour>
  </outline>
</glyph>
<glyph name="ellipsis" format="1">
  <advance width="880"/>
  <unicode hex="2026"/>
  <outline>
    <contour>
      <point x="200" y="0" type="line"/>
      <point x="280" y="120" type="line"/>
      <point x="280" y="160" type="line"/>
      <point x="160" y="240" type="line"/>
      <point x="120" y="240" type="line"/>
      <point x="40" y="120" type="line"/>
      <point x="40" y="80" type="line"/>
      <point x="160" y="0" type="line"/>
    </contour>
    <contour>
      <point x="480" y="0" type="line"/>
      <point x="560" y="80" type="line"/>
      <point x="560" y="120" type="line"/>
      <point x="480" y="200" type="line"/>
      <point x="440" y="200" type="line"/>
      <point x="360" y="120" type="line"/>
      <point x="360" y="80" type="line"/>
      <point x="440" y="0" type="line"/>
    </contour>
    <contour>
      <point x="720" y="0" type="line"/>
      <point x="800" y="40" type="line"/>
      <point x="800" y="80" type="line"/>
      <point x="760" y="160" type="line"/>
      <point x="720" y="160" type="line"/>
      <point x="640" y="120" type="line"/>
      <point x="640" y="80" type="line"/>
      <point x="680" y="0" type="line"/>
    </contour>
  </outline>
</glyph>
<glyph name="fraction" format="1">
  <advance width="280"/>
  <unicode hex="2044"/>
  <outline>
    <contour>
      <point x="200" y="840" type="line"/>
      <point x="240" y="840" type="line"/>
      <point x="80" y="-40" type="line"/>
      <point x="40" y="-40" type="line"/>
    </contour>
  </outline>
</glyph>
<glyph name="numero" format="1">
  <advance width="1240"/>
  <unicode hex="2116"/>
  <outline>
    <contour>
      <point x="960" y="760" type="line"/>
      <point x="1040" y="760" type="line"/>
      <point x="1120" y="720" type="line"/>
      <point x="1200" y="600" type="line"/>
      <point x="1200" y="520" type="line"/>
      <point x="1120" y="400" type="line"/>
      <point x="1040" y="360" type="line"/>
      <point x="960" y="360" type="line"/>
      <point x="880" y="400" type="line"/>
      <point x="800" y="520" type="line"/>
      <point x="800" y="600" type="line"/>
      <point x="880" y="720" type="line"/>
    </contour>
    <contour>
      <point x="1000" y="720" type="line"/>
      <point x="960" y="640" type="line"/>
      <point x="960" y="480" type="line"/>
      <point x="1000" y="400" type="line"/>
      <point x="1040" y="480" type="line"/>
      <point x="1040" y="640" type="line"/>
    </contour>
    <component base="N"/>
    <component base="endash" xOffset="760" yOffset="-40"/>
  </outline>
</glyph>
<glyph name="minus" format="1">
  <advance width="560"/>
  <unicode hex="2212"/>
  <outline>
    <contour>
      <point x="40" y="360" type="line"/>
      <point x="520" y="360" type="line"/>
      <point x="520" y="280" type="line"/>
      <point x="40" y="280" type="line"/>
    </contour>
  </outline>
</glyph>
<glyph name="approxequal" format="1">
  <advance width="833"/>
  <unicode hex="2248"/>
  <outline>
    <contour>
      <point x="600" y="520" type="line"/>
      <point x="640" y="480" type="line"/>
      <point x="520" y="360" type="line"/>
      <point x="440" y="360" type="line"/>
      <point x="360" y="440" type="line"/>
      <point x="240" y="360" type="line"/>
      <point x="200" y="400" type="line"/>
      <point x="320" y="520" type="line"/>
      <point x="400" y="520" type="line"/>
      <point x="480" y="440" type="line"/>
    </contour>
    <contour>
      <point x="600" y="320" type="line"/>
      <point x="640" y="280" type="line"/>
      <point x="520" y="160" type="line"/>
      <point x="440" y="160" type="line"/>
      <point x="360" y="240" type="line"/>
      <point x="240" y="160" type="line"/>
      <point x="200" y="200" type="line"/>
      <point x="320" y="320" type="line"/>
      <point x="400" y="320" type="line"/>
      <point x="480" y="240" type="line"/>
    </contour>
  </outline>
</glyph>
<glyph name="notequal" format="1">
  <advance width="520"/>
  <unicode hex="2260"/>
  <outline>
    <contour>
      <point x="320" y="560" type="line"/>
      <point x="400" y="560" type="line"/>
      <point x="160" y="80" type="line"/>
      <point x="80" y="80" type="line"/>
    </contour>
    <component base="equal" xOffset="-40"/>
  </outline>
</glyph>
<glyph name="greaterequal" format="1">
  <advance width="520"/>
  <unicode hex="2265"/>
  <outline>
    <contour>
      <point x="80" y="120" type="line"/>
      <point x="40" y="200" type="line"/>
      <point x="360" y="400" type="line"/>
      <point x="40" y="600" type="line"/>
      <point x="80" y="680" type="line"/>
      <point x="440" y="439" type="line"/>
      <point x="440" y="360" type="line"/>
    </contour>
    <component base="minus" xOffset="-40" yOffset="-280"/>
  </outline>
</glyph>
<glyph name="lozenge" format="1">
  <advance width="560"/>
  <unicode hex="25CA"/>
  <outline>
    <contour>
      <point x="40" y="360" type="line"/>
      <point x="240" y="0" type="line"/>
      <point x="320" y="0" type="line"/>
      <point x="520" y="360" type="line"/>
      <point x="520" y="440" type="line"/>
      <point x="320" y="800" type="line"/>
      <point x="240" y="800" type="line"/>
      <point x="40" y="440" type="line"/>
    </contour>
    <contour>
      <point x="120" y="400" type="line"/>
      <point x="280" y="720" type="line"/>
      <point x="440" y="400" type="line"/>
      <point x="280" y="80" type="line"/>
    </contour>
  </outline>
</glyph>
<glyph name="T_h.dlig" format="1">
  <advance width="1360"/>
  <outline>
    <contour>
      <point x="680" y="720" type="line"/>
      <point x="480" y="720" type="line"/>
      <point x="480" y="80" type="line"/>
      <point x="560" y="0" type="line"/>
      <point x="200" y="0" type="line"/>
      <point x="280" y="80" type="line"/>
      <point x="280" y="720" type="line"/>
      <point x="120" y="680" type="line"/>
      <point x="40" y="560" type="line"/>
      <point x="0" y="560" type="line"/>
      <point x="40" y="840" type="line"/>
      <point x="200" y="800" type="line"/>
      <point x="560" y="800" type="line"/>
      <point x="720" y="800" type="line"/>
    </contour>
    <contour>
      <point x="600" y="0" type="line"/>
      <point x="680" y="80" type="line"/>
      <point x="680" y="720" type="line"/>
      <point x="720" y="800" type="line"/>
      <point x="880" y="840" type="line"/>
      <point x="880" y="480" type="line"/>
      <point x="960" y="560" type="line"/>
      <point x="1040" y="600" type="line"/>
      <point x="1160" y="560" type="line"/>
      <point x="1240" y="480" type="line"/>
      <point x="1240" y="80" type="line"/>
      <point x="1320" y="0" type="line"/>
      <point x="1000" y="0" type="line"/>
      <point x="1040" y="80" type="line"/>
      <point x="1040" y="400" type="line"/>
      <point x="1000" y="440" type="line"/>
      <point x="960" y="440" type="line"/>
      <point x="880" y="400" type="line"/>
      <point x="880" y="80" type="line"/>
      <point x="920" y="0" type="line"/>
    </contour>
  </outline>
</glyph>
<glyph name=".notdef" format="1">
  <advance width="360"/>
  <outline>
    <contour>
      <point x="40" y="0" type="line"/>
      <point x="40" y="680" type="line"/>
      <point x="280" y="680" type="line"/>
      <point x="280" y="0" type="line"/>
    </contour>
    <contour>
      <point x="120" y="80" type="line"/>
      <point x="200" y="80" type="line"/>
      <point x="200" y="600" type="line"/>
      <point x="120" y="600" type="line"/>
    </contour>
  </outline>
</glyph>
<glyph name="dollar.tnum" format="1">
  <advance width="800"/>
  <outline>
    <contour>
      <point x="360" y="880" type="line"/>
      <point x="400" y="880" type="line"/>
      <point x="400" y="-80" type="line"/>
      <point x="360" y="-80" type="line"/>
    </contour>
    <component base="S" xOffset="80"/>
  </outline>
</glyph>
<glyph name="five.tnum" format="1">
  <advance width="800"/>
  <outline>
    <contour>
      <point x="640" y="640" type="line"/>
      <point x="280" y="640" type="line"/>
      <point x="200" y="480" type="line"/>
      <point x="360" y="520" type="line"/>
      <point x="480" y="520" type="line"/>
      <point x="640" y="440" type="line"/>
      <point x="680" y="320" type="line"/>
      <point x="680" y="200" type="line"/>
      <point x="600" y="80" type="line"/>
      <point x="440" y="0" type="line"/>
      <point x="320" y="0" type="line"/>
      <point x="160" y="80" type="line"/>
      <point x="80" y="200" type="line"/>
      <point x="160" y="320" type="line"/>
      <point x="280" y="320" type="line"/>
      <point x="280" y="240" type="line"/>
      <point x="280" y="120" type="line"/>
      <point x="320" y="80" type="line"/>
      <point x="400" y="80" type="line"/>
      <point x="440" y="120" type="line"/>
      <point x="480" y="240" type="line"/>
      <point x="480" y="360" type="line"/>
      <point x="400" y="440" type="line"/>
      <point x="320" y="440" type="line"/>
      <point x="160" y="400" type="line"/>
      <point x="120" y="400" type="line"/>
      <point x="200" y="800" type="line"/>
      <point x="680" y="800" type="line"/>
    </contour>
  </outline>
</glyph>
<glyph name="nine.tnum" format="1">
  <advance width="800"/>
  <outline>
    <contour>
      <point x="520" y="400" type="line"/>
      <point x="480" y="320" type="line"/>
      <point x="400" y="280" type="line"/>
      <point x="320" y="280" type="line"/>
      <point x="160" y="360" type="line"/>
      <point x="80" y="480" type="line"/>
      <point x="80" y="600" type="line"/>
      <point x="160" y="720" type="line"/>
      <point x="320" y="800" type="line"/>
      <point x="480" y="800" type="line"/>
      <point x="640" y="720" type="line"/>
      <point x="720" y="560" type="line"/>
      <point x="720" y="320" type="line"/>
      <point x="640" y="160" type="line"/>
      <point x="480" y="40" type="line"/>
      <point x="240" y="0" type="line"/>
      <point x="160" y="0" type="line"/>
      <point x="80" y="120" type="line"/>
      <point x="160" y="240" type="line"/>
      <point x="280" y="240" type="line"/>
      <point x="280" y="80" type="line"/>
      <point x="400" y="120" type="line"/>
      <point x="480" y="240" type="line"/>
      <point x="520" y="360" type="line"/>
    </contour>
    <contour>
      <point x="480" y="440" type="line"/>
      <point x="520" y="520" type="line"/>
      <point x="520" y="600" type="line"/>
      <point x="480" y="680" type="line"/>
      <point x="400" y="720" type="line"/>
      <point x="400" y="720" type="line"/>
      <point x="320" y="680" type="line"/>
      <point x="280" y="600" type="line"/>
      <point x="280" y="520" type="line"/>
      <point x="320" y="440" type="line"/>
      <point x="400" y="400" type="line"/>
      <point x="400" y="400" type="line"/>
    </contour>
  </outline>
</glyph>
<glyph name="one.tnum" format="1">
  <advance width="800"/>
  <outline>
    <contour>
      <point x="520" y="800" type="line"/>
      <point x="520" y="80" type="line"/>
      <point x="760" y="40" type="line"/>
      <point x="760" y="0" type="line"/>
      <point x="80" y="0" type="line"/>
      <point x="80" y="40" type="line"/>
      <point x="320" y="80" type="line"/>
      <point x="320" y="600" type="line"/>
      <point x="120" y="600" type="line"/>
      <point x="120" y="640" type="line"/>
      <point x="320" y="680" type="line"/>
      <point x="360" y="760" type="line"/>
    </contour>
  </outline>
</glyph>
<glyph name="q_j.dlig" format="1">
  <advance width="1080"/>
  <outline>
    <contour>
      <point x="640" y="600" type="line"/>
      <point x="640" y="440" type="line"/>
      <point x="640" y="-240" type="line"/>
      <point x="640" y="-320" type="line"/>
      <point x="360" y="-320" type="line"/>
      <point x="440" y="-240" type="line"/>
      <point x="440" y="80" type="line"/>
      <point x="360" y="0" type="line"/>
      <point x="280" y="0" type="line"/>
      <point x="160" y="40" type="line"/>
      <point x="40" y="200" type="line"/>
      <point x="40" y="400" type="line"/>
      <point x="160" y="560" type="line"/>
      <point x="280" y="600" type="line"/>
      <point x="360" y="600" type="line"/>
      <point x="480" y="520" type="line"/>
      <point x="480" y="600" type="line"/>
    </contour>
    <contour>
      <point x="400" y="480" type="line"/>
      <point x="320" y="480" type="line"/>
      <point x="240" y="400" type="line"/>
      <point x="240" y="240" type="line"/>
      <point x="320" y="120" type="line"/>
      <point x="400" y="120" type="line"/>
      <point x="440" y="200" type="line"/>
      <point x="440" y="400" type="line"/>
    </contour>
    <contour>
      <point x="720" y="520" type="line"/>
      <point x="1000" y="600" type="line"/>
      <point x="1000" y="0" type="line"/>
      <point x="920" y="-200" type="line"/>
      <point x="640" y="-320" type="line"/>
      <point x="600" y="-280" type="line"/>
      <point x="760" y="-160" type="line"/>
      <point x="800" y="-40" type="line"/>
      <point x="800" y="440" type="line"/>
    </contour>
    <contour>
      <point x="880" y="600" type="line"/>
      <point x="760" y="680" type="line"/>
      <point x="760" y="720" type="line"/>
      <point x="840" y="840" type="line"/>
      <point x="880" y="840" type="line"/>
      <point x="1000" y="760" type="line"/>
      <point x="1000" y="720" type="line"/>
      <point x="920" y="600" type="line"/>
    </contour>
  </outline>
</glyph>
<glyph name="seven.tnum" format="1">
  <advance width="800"/>
  <outline>
    <contour>
      <point x="440" y="280" type="line"/>
      <point x="400" y="0" type="line"/>
      <point x="160" y="0" type="line"/>
      <point x="240" y="280" type="line"/>
      <point x="360" y="480" type="line"/>
      <point x="520" y="640" type="line"/>
      <point x="640" y="720" type="line"/>
      <point x="280" y="720" type="line"/>
      <point x="240" y="680" type="line"/>
      <point x="240" y="560" type="line"/>
      <point x="160" y="560" type="line"/>
      <point x="80" y="680" type="line"/>
      <point x="80" y="800" type="line"/>
      <point x="760" y="800" type="line"/>
      <point x="760" y="760" type="line"/>
      <point x="600" y="600" type="line"/>
      <point x="480" y="400" type="line"/>
    </contour>
  </outline>
</glyph>
<glyph name="yen.tnum" format="1">
  <advance width="800"/>
  <outline>
    <contour>
      <point x="160" y="200" type="line"/>
      <point x="680" y="200" type="line"/>
      <point x="680" y="160" type="line"/>
      <point x="160" y="160" type="line"/>
    </contour>
    <contour>
      <point x="160" y="320" type="line"/>
      <point x="680" y="320" type="line"/>
      <point x="680" y="280" type="line"/>
      <point x="160" y="280" type="line"/>
    </contour>
    <component base="Y" xOffset="40"/>
  </outline>
</glyph>
<glyph name="zero.tnum" format="1">
  <advance width="800"/>
  <outline>
    <contour>
      <point x="520" y="560" type="line"/>
      <point x="480" y="680" type="line"/>
      <point x="400" y="720" type="line"/>
      <point x="320" y="680" type="line"/>
      <point x="280" y="560" type="line"/>
      <point x="280" y="240" type="line"/>
      <point x="320" y="120" type="line"/>
      <point x="400" y="80" type="line"/>
      <point x="480" y="120" type="line"/>
      <point x="520" y="240" type="line"/>
    </contour>
    <contour>
      <point x="640" y="80" type="line"/>
      <point x="480" y="0" type="line"/>
      <point x="320" y="0" type="line"/>
      <point x="160" y="80" type="line"/>
      <point x="80" y="200" type="line"/>
      <point x="40" y="400" type="line"/>
      <point x="80" y="600" type="line"/>
      <point x="160" y="720" type="line"/>
      <point x="320" y="800" type="line"/>
      <point x="480" y="800" type="line"/>
      <point x="640" y="720" type="line"/>
      <point x="720" y="600" type="line"/>
      <point x="760" y="400" type="line"/>
      <point x="720" y="200" type="line"/>
    </contour>
  </outline>
</glyph>
